<?xml version="1.0" encoding="UTF-8" standalone="no"?>
<!DOCTYPE svg PUBLIC "-//W3C//DTD SVG 20010904//EN" "http://www.w3.org/TR/2001/REC-SVG-20010904/DTD/svg10.dtd">
<svg version="1.0" xmlns="http://www.w3.org/2000/svg" width="1022.000000pt" height="1280.000000pt" viewBox="0 0 1022.000000 1280.000000" preserveAspectRatio="xMidYMid meet">
<metadata>
Created by potrace 1.15, written by Peter Selinger 2001-2017
</metadata>
<g transform="translate(0.000000,1280.000000) scale(0.100000,-0.100000)" fill="#000000" stroke="none">
<path d="M8075 12779 c-81 -23 -104 -39 -57 -39 51 0 125 20 152 40 l25 20 -25 -1 c-14 0 -56 -9 -95 -20z"/>
<path d="M8213 12751 c-73 -58 -88 -63 -183 -63 l-86 0 -37 -56 c-40 -60 -43 -75 -26 -151 6 -28 9 -59 7 -68 -8 -38 -28 26 -40 126 -6 56 -15 101 -20 101 -4 0 -36 -34 -72 -76 -110 -129 -189 -309 -222 -509 -22 -134 -14 -339 16 -445 46 -160 150 -308 268 -379 99 -59 112 -57 163 32 22 39 54 90 70 113 20 29 26 48 22 65 l-6 24 29 -27 30 -28 21 22 c21 21 24 21 85 6 71 -17 103 -11 139 28 27 28 46 30 94 7 19 -9 36 -15 39 -12 29 34 104 188 131 271 40 122 41 131 20 148 -21 17 -19 33 4 25 16 -5 19 1 24 37 10 79 0 311 -18 393 -28 130 -111 275 -203 353 -56 46 -76 58 -148 82 l-53 19 -48 -38z m-233 -235 c0 -7 82 -93 183 -192 138 -136 195 -185 235 -204 35 -16 52 -29 52 -42 0 -23 -1 -23 -61 8 -73 37 -89 31 -117 -41 -33 -88 -33 -88 -106 -106 -107 -27 -122 -50 -89 -141 l17 -47 -67 -70 c-37 -38 -67 -76 -67 -84 0 -9 15 -21 35 -27 40 -13 48 -40 12 -40 -29 0 -65 36 -76 78 -9 30 -7 33 30 54 63 35 74 60 71 157 -1 46 0 92 3 102 6 19 36 32 112 49 29 7 57 17 62 24 6 7 24 44 40 83 l29 70 -144 151 c-130 137 -195 225 -194 264 1 16 40 -30 40 -46z m505 -529 c18 -46 64 -97 89 -97 7 0 23 -11 36 -25 22 -23 22 -25 4 -25 -10 0 -42 13 -70 29 -56 33 -83 75 -91 145 -7 51 7 40 32 -27z"/>
<path d="M6475 12766 c-99 -31 -182 -93 -250 -186 -41 -56 -46 -76 -14 -60 27 15 40 9 62 -29 20 -35 6 -43 -17 -9 -15 21 -16 21 -58 5 l-43 -17 -30 -107 c-27 -99 -30 -121 -29 -253 1 -170 23 -292 76 -422 47 -114 144 -261 221 -335 59 -57 179 -143 199 -143 5 0 -5 20 -22 44 -34 51 -36 61 -14 74 9 5 23 43 34 95 11 48 24 96 31 109 11 20 13 20 24 4 11 -14 7 -30 -21 -99 -45 -109 -44 -143 4 -200 37 -44 38 -45 128 -57 79 -11 96 -10 140 5 159 53 281 195 329 383 26 105 45 256 31 265 -8 5 -8 9 0 15 17 11 -10 212 -42 312 -38 121 -89 235 -140 311 -57 86 -86 110 -124 103 -30 -7 -49 11 -31 29 20 20 12 32 -51 74 -80 52 -117 71 -153 75 -23 2 -29 -2 -35 -24 -11 -38 24 -231 58 -318 16 -41 36 -96 46 -121 11 -30 36 -65 76 -103 33 -31 60 -61 60 -67 0 -17 -99 42 -130 77 -15 18 -35 56 -45 86 -32 103 -80 208 -95 208 -8 0 -23 -11 -35 -25 -15 -20 -34 -28 -80 -35 -33 -4 -77 -16 -98 -25 -21 -8 -59 -20 -85 -25 -26 -5 -54 -11 -63 -15 -11 -4 -18 0 -22 14 -4 18 -1 21 30 21 20 0 65 16 112 40 43 22 90 40 105 40 36 0 87 22 111 50 18 20 20 34 18 127 -2 57 -5 109 -8 114 -9 13 -113 10 -160 -5z m705 -976 c0 -15 -7 -20 -27 -20 -16 -1 -39 -7 -53 -15 -42 -24 -48 -18 -30 29 8 23 15 26 60 26 43 0 50 -3 50 -20z"/>
<path d="M1490 12621 c0 -7 12 -60 27 -117 22 -82 31 -104 45 -104 21 0 22 -4 7 -28 -8 -13 -3 -43 21 -127 17 -60 34 -138 37 -172 5 -55 2 -70 -23 -125 -28 -61 -29 -68 -29 -215 0 -84 3 -154 7 -155 4 -2 18 -46 32 -98 48 -187 124 -365 208 -491 44 -65 58 -79 79 -79 33 0 92 24 144 60 22 15 62 34 88 43 36 12 66 35 119 89 38 40 54 54 34 30 -20 -23 -36 -50 -36 -59 0 -9 -7 -24 -16 -34 -14 -15 -13 -19 16 -39 34 -24 93 -100 85 -108 -2 -3 -27 16 -54 41 -37 35 -58 47 -81 47 -35 0 -93 -27 -137 -64 -17 -14 -52 -35 -79 -47 l-49 -21 45 -39 c67 -58 147 -110 203 -131 67 -26 80 -18 26 16 -39 25 -107 102 -98 111 2 2 45 -27 95 -63 141 -104 142 -104 191 -82 64 28 117 83 148 152 74 164 27 506 -106 769 -66 133 -134 226 -243 335 -106 105 -92 97 -336 212 -28 14 -66 63 -192 251 -165 245 -178 264 -178 242z m615 -641 c3 -5 -3 -14 -14 -19 -26 -14 -31 -14 -31 4 0 9 -6 12 -17 8 -16 -6 -16 -4 1 15 14 16 23 19 37 12 10 -6 21 -14 24 -20z"/>
<path d="M575 12179 c8 -30 43 -135 78 -234 36 -99 68 -195 71 -212 6 -23 13 -33 27 -33 12 0 19 -7 19 -20 0 -12 -5 -17 -13 -14 -32 12 -84 -275 -72 -396 38 -386 310 -830 591 -962 95 -45 198 -51 264 -15 128 68 185 267 146 508 -12 74 -23 109 -36 120 -26 22 -149 74 -157 66 -3 -4 -1 -18 5 -32 6 -14 8 -25 3 -25 -14 0 -31 51 -42 128 -11 81 -62 204 -98 236 -11 10 -23 31 -26 47 -7 32 -18 35 -55 14 -14 -8 -34 -14 -45 -14 -17 0 -16 2 7 16 15 10 30 30 33 45 4 16 11 25 19 22 13 -5 26 35 26 80 0 26 -83 109 -160 160 -59 39 -80 44 -80 21 0 -9 -9 -15 -25 -15 -28 0 -29 3 -15 30 9 17 5 19 -37 26 -61 8 -120 38 -128 63 -6 19 -7 19 -36 3 -26 -15 -31 -15 -39 -2 -16 24 -12 30 20 30 29 0 29 1 -97 188 -69 103 -134 196 -144 206 -17 19 -18 18 -4 -35z m192 -353 c-7 -21 -37 -19 -37 2 0 15 5 19 20 15 12 -3 19 -11 17 -17z m64 -157 c24 -12 18 -24 -22 -45 -30 -15 -30 -15 -19 6 6 12 9 28 6 36 -6 17 8 18 35 3z m99 -245 c0 -14 -21 -19 -33 -7 -9 9 13 34 24 27 5 -3 9 -12 9 -20z m230 -101 c-1 -20 -19 -35 -35 -29 -14 5 -15 9 -5 21 13 16 40 21 40 8z m-70 -468 c17 -9 30 -22 30 -30 0 -18 -12 -19 -28 -3 -10 10 -19 8 -42 -5 -17 -10 -30 -14 -30 -8 0 5 5 13 10 16 6 3 10 15 10 26 0 23 11 24 50 4z m434 -171 c10 -27 7 -34 -19 -34 -27 0 -33 18 -13 38 16 16 25 15 32 -4z"/>
<path d="M2905 12101 c-3 -5 9 -31 26 -56 65 -97 149 -341 149 -435 0 -34 -4 -39 -42 -56 -70 -31 -117 -72 -159 -136 -83 -129 -127 -351 -111 -563 l7 -100 23 61 c18 51 22 81 22 182 0 70 -4 123 -10 127 -10 6 -15 45 -6 45 3 0 21 -10 42 -22 l36 -21 -4 -126 c-5 -119 -7 -132 -47 -235 -42 -108 -42 -109 -22 -127 11 -10 23 -39 27 -65 l7 -47 72 6 c54 5 106 0 210 -18 138 -25 218 -30 286 -19 l35 6 22 96 c31 140 35 189 27 334 -6 101 -10 128 -21 124 -9 -4 -14 8 -16 42 -3 46 -4 47 -40 50 -41 3 -120 -32 -152 -67 -11 -12 -31 -21 -48 -21 -34 0 -34 2 -5 33 12 13 37 43 55 65 l33 41 65 -1 c36 -2 68 -6 70 -10 3 -4 9 -8 14 -8 12 0 2 35 -31 107 -15 35 -35 98 -44 140 -40 184 -93 325 -171 450 -55 89 -146 183 -203 213 -42 21 -86 26 -96 11z m265 -1084 c0 -20 -30 -57 -46 -57 -8 0 -14 2 -14 4 0 2 -3 11 -6 19 -4 10 4 21 23 31 35 19 43 20 43 3z"/>
<path d="M1357 11514 c-3 -6 -2 -40 4 -75 7 -47 22 -83 56 -139 64 -105 72 -120 78 -161 8 -51 37 -84 90 -102 25 -9 45 -14 45 -11 0 21 -160 313 -201 367 -29 38 -55 83 -58 100 -4 18 -10 27 -14 21z"/>
<path d="M9090 11504 c-8 -3 -43 -14 -78 -25 -46 -15 -73 -31 -98 -59 -22 -24 -47 -40 -69 -44 -34 -7 -44 -19 -26 -30 10 -7 23 -141 25 -261 1 -49 5 -107 10 -127 7 -34 5 -40 -21 -62 -41 -34 -78 -143 -77 -226 0 -51 7 -79 30 -127 l29 -62 55 24 c30 13 58 21 61 19 4 -2 10 -25 14 -50 3 -26 9 -53 12 -60 10 -27 -18 -14 -35 16 -26 44 -50 51 -92 25 -19 -12 -52 -28 -73 -36 -21 -7 -53 -30 -71 -50 -21 -22 -57 -44 -95 -59 l-61 -22 22 -39 c71 -126 257 -224 388 -203 121 18 266 86 347 162 l51 47 -8 68 c-9 79 -23 98 -108 146 -50 28 -92 72 -92 96 0 3 17 -8 38 -24 20 -17 55 -38 77 -47 71 -29 94 -52 110 -107 25 -87 28 -87 80 -16 64 87 121 208 152 325 23 86 26 120 27 261 l1 162 -30 31 c-16 18 -56 45 -87 61 -76 39 -88 58 -88 144 0 79 -12 105 -60 125 -26 11 -33 10 -49 -4 -39 -35 -72 -35 -119 1 -42 32 -60 37 -92 27z m-143 -555 c-13 -8 -15 -14 -7 -29 14 -26 13 -27 -15 -34 -13 -3 -41 -22 -60 -42 -20 -20 -39 -34 -41 -31 -18 18 90 147 122 147 18 -1 18 -1 1 -11z m-107 -304 c0 -19 1 -38 3 -42 1 -5 -8 -9 -19 -11 -17 -2 -23 4 -28 29 -10 51 -8 59 19 59 22 0 25 -4 25 -35z m-19 -263 c-17 -32 -135 -111 -147 -99 -11 10 46 73 85 94 55 29 76 30 62 5z m99 -61 c53 -42 116 -59 168 -46 57 14 101 17 119 6 15 -9 11 -10 -23 -11 -23 0 -61 -7 -84 -15 -83 -29 -134 -17 -207 52 -29 28 -43 53 -28 53 3 0 28 -18 55 -39z"/>
<path d="M8361 11415 c-49 -39 -67 -42 -136 -19 l-48 17 -21 -29 c-11 -16 -46 -56 -77 -89 -59 -63 -89 -103 -89 -119 0 -5 31 -6 71 -4 101 8 230 73 330 167 74 69 74 69 55 90 -25 28 -34 27 -85 -14z"/>
<path d="M5556 11422 c-3 -6 4 -31 16 -56 l22 -45 32 19 c32 21 89 27 98 11 3 -5 -11 -12 -31 -16 -54 -10 -70 -21 -98 -65 -32 -51 -48 -51 -30 -1 13 38 12 40 -21 90 -30 44 -39 51 -57 45 -88 -27 -185 -110 -228 -196 -16 -31 -37 -96 -47 -143 l-19 -87 32 6 c18 4 43 2 56 -3 22 -8 19 -9 -22 -16 -73 -11 -71 -6 -59 -149 18 -229 94 -405 253 -588 49 -57 51 -58 101 -57 28 1 62 4 76 8 37 10 59 64 66 163 6 75 4 89 -11 104 -14 15 -16 29 -12 77 3 32 8 61 12 65 13 13 25 -25 25 -80 0 -31 5 -60 11 -64 8 -5 9 -44 4 -135 l-7 -128 55 -31 c101 -57 99 -75 -4 -27 l-94 44 -30 -19 c-16 -10 -38 -18 -47 -18 -44 0 0 -38 100 -89 267 -135 532 -36 619 230 29 87 46 227 38 309 -7 70 -41 224 -57 253 -5 11 -33 30 -62 43 -52 23 -53 24 -151 9 -54 -8 -120 -15 -147 -15 -27 0 -65 -7 -86 -16 -20 -9 -62 -24 -92 -34 -70 -22 -90 -56 -97 -170 -7 -92 -24 -95 -43 -7 -9 42 -8 59 6 97 l17 47 -39 74 c-36 68 -44 77 -102 108 -63 32 -64 34 -57 67 5 31 4 34 -17 34 -21 0 -85 57 -127 112 -12 16 -11 17 20 6 19 -6 66 -43 104 -82 39 -38 97 -88 130 -110 48 -33 63 -50 76 -86 l17 -45 60 1 c46 1 71 7 107 28 37 22 67 30 139 37 50 5 115 12 144 15 l52 7 0 51 c0 108 -8 125 -90 207 -79 79 -192 153 -289 190 -63 23 -205 37 -215 21z"/>
<path d="M9451 11364 c-13 -29 -9 -34 62 -74 44 -25 47 -16 9 36 -46 63 -57 68 -71 38z"/>
<path d="M8730 11284 c-104 -112 -196 -280 -242 -439 -35 -124 -32 -355 7 -482 3 -9 20 -7 63 8 61 21 102 50 102 73 0 14 30 26 68 26 30 0 31 49 1 68 -20 13 -21 20 -17 145 5 146 15 179 69 218 28 20 30 25 24 58 -4 20 -9 95 -11 166 -2 72 -7 147 -11 169 l-8 38 -45 -48z m32 -229 c2 -12 -110 -70 -118 -62 -9 8 17 43 45 61 28 17 71 18 73 1z"/>
<path d="M6176 11045 c13 -58 40 -95 70 -95 7 0 -34 73 -56 100 l-21 25 7 -30z"/>
<path d="M57 10698 c-23 -36 -27 -95 -13 -185 l12 -82 -31 -4 -30 -4 30 -1 c29 -2 32 -8 74 -109 57 -144 136 -275 215 -361 36 -39 75 -90 87 -114 l21 -42 15 27 c9 18 22 27 38 27 22 0 25 -5 25 -32 0 -49 -14 -66 -40 -50 -33 20 -33 14 1 -35 73 -107 252 -265 386 -339 83 -47 255 -107 264 -93 4 8 13 8 28 -1 33 -17 138 -6 194 20 52 25 92 67 115 120 24 58 12 179 -28 274 -42 101 -57 116 -115 116 -41 0 -45 -2 -45 -25 0 -18 -9 -29 -32 -41 -18 -9 -37 -23 -41 -30 -10 -18 -46 -18 -90 1 -20 8 -40 15 -45 15 -8 0 -132 -163 -132 -174 0 -16 39 -4 45 14 3 11 13 20 20 20 11 0 12 -6 6 -22 -5 -15 -22 -27 -50 -35 -38 -11 -42 -10 -39 5 1 9 0 22 -4 27 -3 6 27 50 68 98 41 49 74 92 74 96 0 21 -206 211 -229 211 -34 0 -110 24 -131 41 l-25 20 87 -4 c111 -6 144 -24 273 -152 53 -52 100 -95 103 -95 4 0 34 18 67 40 32 21 72 45 87 51 15 6 28 16 28 21 0 10 -99 117 -164 177 -95 88 -207 151 -370 208 -94 33 -107 35 -184 30 -63 -5 -94 -12 -129 -32 -25 -14 -51 -25 -58 -25 -17 0 -121 114 -170 184 -20 29 -55 99 -79 157 -45 109 -64 128 -89 87z m515 -523 c12 -16 -2 -25 -43 -25 -41 0 -42 0 -33 23 6 16 65 18 76 2z m138 -264 c0 -10 -8 -21 -17 -25 -10 -3 -24 -9 -30 -12 -22 -10 -14 24 9 40 29 21 38 20 38 -3z m520 -317 c0 -8 -9 -14 -20 -14 -19 0 -28 28 -13 43 9 9 33 -12 33 -29z m-35 -54 c0 -23 -29 -50 -41 -37 -10 10 17 68 30 64 6 -2 11 -14 11 -27z m90 -127 c5 -13 -4 -27 -31 -50 -42 -37 -76 -42 -96 -15 -7 11 -20 21 -28 24 -19 6 18 27 80 44 62 17 67 17 75 -3z"/>
<path d="M7275 10564 c-254 -46 -486 -168 -673 -354 -75 -75 -102 -123 -102 -184 0 -40 3 -45 31 -55 18 -6 46 -11 64 -11 33 0 61 -23 85 -69 11 -21 16 -22 56 -16 34 5 54 1 91 -16 32 -14 69 -22 113 -23 56 -1 73 -6 116 -33 29 -19 59 -49 72 -72 22 -38 39 -51 69 -51 12 0 14 7 10 30 -5 25 -3 30 12 30 10 0 24 7 31 15 7 8 18 15 26 15 24 0 25 19 4 138 -32 191 -25 290 25 350 13 16 58 51 100 78 41 27 75 52 75 55 0 3 -17 45 -38 95 -44 103 -40 101 -167 78z"/>
<path d="M7452 10549 c7 -17 36 -58 63 -91 109 -131 107 -130 161 -135 63 -6 119 16 142 57 21 36 31 37 66 5 14 -13 45 -29 69 -35 23 -6 68 -18 100 -27 32 -9 60 -13 63 -10 8 8 -100 93 -175 137 -131 78 -305 130 -439 130 l-62 0 12 -31z"/>
<path d="M2865 10460 c-22 -4 -31 -8 -20 -9 13 0 29 -17 44 -46 13 -25 51 -70 83 -100 136 -127 274 -104 397 65 28 38 51 73 51 76 0 4 -73 4 -162 0 -131 -6 -176 -4 -228 8 -69 17 -100 18 -165 6z"/>
<path d="M7484 10349 c-10 -12 -48 -42 -83 -67 -38 -28 -69 -58 -77 -77 -7 -17 -16 -76 -20 -131 -8 -130 0 -142 115 -168 44 -10 86 -25 93 -34 12 -14 8 -15 -27 -9 -22 4 -64 10 -93 13 l-53 7 2 -70 3 -69 -49 -65 c-27 -35 -59 -72 -71 -81 -11 -9 -31 -44 -43 -78 -12 -33 -25 -60 -29 -60 -4 0 -13 -4 -21 -9 -11 -7 -11 -12 2 -32 8 -13 18 -49 22 -79 11 -87 23 -125 50 -150 21 -20 25 -32 25 -85 0 -103 -8 -125 -68 -181 l-54 -52 7 -76 c4 -42 11 -76 16 -76 4 0 52 11 106 25 165 41 227 48 362 42 69 -4 139 -9 156 -13 l29 -7 -19 29 c-11 16 -35 61 -55 99 -34 69 -36 70 -82 77 -78 11 -94 29 -19 21 l63 -6 33 39 33 39 -11 -41 c-16 -62 10 -120 91 -206 72 -76 101 -93 307 -181 155 -66 257 -96 344 -99 l65 -3 8 40 c5 22 13 44 18 49 6 6 10 23 10 38 0 28 0 28 30 13 17 -9 30 -17 30 -19 0 -1 -9 -28 -19 -59 -23 -66 -23 -66 68 -38 169 52 264 169 278 341 6 72 -18 234 -42 279 -13 27 -19 29 -102 35 -81 7 -89 6 -103 -13 -8 -11 -23 -31 -33 -43 l-18 -23 5 38 c3 20 9 53 13 74 l6 36 -42 -6 c-35 -4 -57 -18 -122 -77 -44 -40 -82 -70 -85 -67 -3 3 2 22 11 42 8 21 14 39 13 41 -2 1 -16 4 -33 6 -27 3 -31 0 -37 -32 -10 -49 -25 -190 -20 -190 2 0 17 11 34 25 44 37 68 33 68 -10 0 -26 9 -45 35 -74 31 -34 34 -42 25 -66 -16 -42 -12 -55 16 -55 25 0 26 -2 20 -37 -12 -68 -16 -73 -46 -73 -38 0 -43 11 -30 61 9 31 9 44 0 53 -8 8 -15 6 -24 -7 -13 -16 -15 -16 -30 8 -16 24 -16 26 8 35 36 13 42 49 16 93 -12 20 -28 37 -36 37 -7 0 -34 -21 -58 -47 -25 -26 -49 -44 -53 -40 -4 4 0 36 8 70 18 80 18 273 0 357 -12 54 -23 74 -61 115 -26 28 -55 67 -65 88 -11 25 -40 54 -80 83 -42 29 -76 65 -105 108 -45 69 -54 76 -106 76 -26 0 -34 -4 -34 -18 0 -23 -30 -52 -53 -52 -14 0 -17 -10 -17 -50 0 -45 -3 -52 -26 -60 -15 -6 -42 -8 -60 -4 -29 5 -34 10 -34 33 0 35 -17 51 -54 51 -56 0 -173 67 -152 87 3 3 18 1 32 -6 14 -6 53 -14 85 -18 51 -5 62 -3 74 13 22 29 44 101 55 183 7 51 22 95 47 144 43 81 51 75 52 -38 1 -57 27 -166 48 -204 1 -2 14 0 28 3 25 6 26 8 19 66 -6 55 -4 61 25 102 30 43 101 198 101 222 0 8 -34 22 -85 36 -46 12 -92 31 -101 41 -16 18 -18 18 -49 -14 -18 -19 -49 -41 -69 -51 -36 -17 -39 -17 -107 6 -66 22 -70 25 -67 51 5 47 -44 63 -78 26z m1259 -1356 c58 -7 60 -19 5 -33 -24 -5 -59 -18 -78 -28 -22 -11 -46 -15 -65 -12 -31 6 -29 10 20 35 11 6 21 21 23 34 3 18 8 22 25 16 12 -3 43 -9 70 -12z m95 -235 c-2 -13 -13 -27 -25 -33 -12 -5 -24 -20 -28 -32 -8 -33 -45 -31 -45 2 0 18 12 34 42 55 49 36 60 37 56 8z"/>
<path d="M2170 10256 c-77 -17 -122 -39 -196 -91 -69 -50 -117 -111 -146 -187 -26 -68 -23 -72 23 -38 63 46 140 70 219 70 60 0 72 3 92 24 17 17 38 25 79 29 71 7 145 44 193 97 51 56 47 83 -14 91 -111 16 -198 17 -250 5z"/>
<path d="M8094 10212 c-14 -89 -36 -143 -74 -187 -69 -80 -65 -115 32 -265 59 -91 90 -124 126 -135 19 -5 22 -3 22 19 0 14 5 26 10 26 6 0 10 -11 10 -24 0 -43 19 -78 79 -142 44 -47 64 -77 78 -121 20 -64 39 -79 115 -89 43 -6 45 -5 71 35 16 24 38 43 54 47 27 7 35 4 112 -50 40 -28 141 -50 141 -31 0 21 -137 267 -212 381 -108 164 -422 552 -451 558 -12 3 -41 7 -64 9 -42 5 -43 5 -49 -31z"/>
<path d="M2535 10168 c7 -44 7 -44 -34 -63 -37 -16 -41 -22 -41 -53 0 -31 10 -45 85 -117 47 -44 85 -85 85 -91 0 -5 23 -33 50 -62 44 -47 53 -51 71 -41 18 9 28 6 63 -18 37 -26 41 -33 39 -69 -8 -159 -8 -158 23 -214 33 -62 73 -85 100 -59 13 14 22 12 82 -17 172 -85 233 -108 250 -96 9 6 40 24 68 41 28 16 66 48 84 71 35 45 28 43 116 23 17 -4 23 1 28 21 6 26 8 26 100 26 l94 0 36 -42 c35 -41 47 -78 25 -78 -6 0 -29 16 -50 35 -22 19 -46 35 -54 35 -28 0 -135 -60 -135 -75 0 -8 -7 -15 -15 -15 -8 0 -15 9 -15 19 0 15 -9 20 -42 23 -60 7 -88 -6 -88 -37 0 -18 -7 -28 -27 -36 -15 -5 -55 -30 -89 -54 -35 -25 -68 -45 -75 -45 -7 0 -24 11 -38 24 -60 56 -352 147 -371 115 -5 -6 -13 -39 -19 -73 -6 -34 -28 -114 -48 -180 l-37 -119 28 -51 c23 -40 30 -67 34 -127 l4 -76 48 18 c84 32 189 39 397 27 299 -17 386 5 511 131 80 80 112 136 146 255 36 123 36 122 -25 128 -48 5 -68 18 -69 44 0 15 33 24 89 24 34 0 41 3 33 13 -6 7 -18 46 -28 87 -21 96 -64 180 -122 243 -78 82 -243 190 -257 167 -4 -6 -21 -8 -40 -4 -19 3 -35 1 -39 -5 -9 -14 -43 -14 -51 -1 -4 6 -1 17 5 25 10 12 10 15 -1 15 -8 0 -24 3 -35 6 -17 4 -23 0 -27 -18 -4 -13 -26 -35 -49 -50 -24 -15 -65 -50 -93 -77 -27 -28 -53 -51 -57 -51 -20 0 -3 25 61 93 l69 72 -116 1 c-95 0 -129 4 -181 23 -68 24 -131 62 -178 109 -48 48 -216 196 -251 221 l-34 24 7 -45z m1309 -973 c-1 -13 -61 -48 -75 -43 -19 6 32 59 55 56 11 -2 21 -7 20 -13z m-866 -41 c-3 -17 -17 -28 -53 -39 -19 -6 -19 -7 -2 -19 9 -7 17 -23 17 -35 0 -18 -4 -20 -27 -15 -42 10 -46 14 -28 34 9 10 15 30 13 46 -2 22 2 29 22 35 44 12 62 10 58 -7z m757 -45 c-18 -33 -37 -44 -60 -35 -12 4 -9 12 16 36 43 41 65 41 44 -1z"/>
<path d="M2335 10020 c-27 -16 -71 -34 -97 -40 -25 -7 -49 -17 -51 -24 -3 -8 -36 -15 -91 -19 -116 -9 -184 -40 -253 -115 l-53 -57 6 -160 c7 -163 2 -207 -33 -287 -15 -36 -15 -37 12 -62 15 -14 32 -26 38 -26 5 0 36 -14 69 -30 33 -17 81 -33 106 -37 26 -3 58 -12 72 -20 23 -13 21 -14 -30 -9 -30 3 -76 9 -102 12 -44 6 -48 5 -59 -20 -17 -36 -26 -33 -21 9 3 27 0 36 -14 41 -11 4 -43 17 -71 30 -36 15 -53 19 -53 11 0 -7 -36 -48 -80 -92 -99 -99 -174 -204 -214 -304 -28 -71 -31 -85 -30 -201 0 -111 3 -132 26 -192 15 -37 43 -93 63 -125 37 -57 167 -193 186 -193 5 0 28 -9 52 -19 73 -34 182 -61 243 -61 72 0 180 22 226 46 60 31 159 137 238 254 87 130 198 253 260 290 72 42 80 54 80 113 0 77 -16 122 -60 168 l-38 41 -89 -3 c-79 -2 -99 1 -198 36 -60 20 -124 43 -142 51 -32 13 -32 13 -54 -26 -22 -39 -59 -55 -59 -26 0 15 48 66 63 66 6 0 2 9 -8 20 -18 19 -17 20 2 20 11 0 28 -9 38 -20 13 -15 31 -20 65 -20 25 0 78 -11 117 -24 55 -19 96 -25 194 -27 l123 -4 12 40 c7 22 22 58 34 80 15 30 19 50 14 78 -4 24 0 57 11 92 18 55 17 76 -6 152 -11 35 -10 52 4 110 13 52 14 78 6 105 -8 33 -16 39 -66 58 -47 18 -79 43 -183 143 -69 67 -126 131 -128 142 -6 42 -13 65 -20 65 -4 0 -29 -14 -57 -30z m-272 -165 c-7 -19 -43 -20 -43 -1 0 8 8 16 18 19 24 5 32 -1 25 -18z m98 6 c-10 -17 -69 -46 -78 -37 -2 2 1 15 6 30 9 21 17 26 46 26 32 0 35 -2 26 -19z m-161 5 c0 -20 -17 -36 -38 -36 -24 0 -25 0 -7 20 16 17 45 28 45 16z m478 -53 c-5 -25 -28 -28 -28 -4 0 12 6 21 16 21 9 0 14 -7 12 -17z m-238 -23 c0 -11 -7 -20 -15 -20 -15 0 -21 21 -8 33 12 13 23 7 23 -13z m-200 -32 c0 -25 -16 -37 -58 -44 -37 -6 -42 -4 -36 10 4 10 18 16 40 16 24 0 34 5 34 15 0 8 5 15 10 15 6 0 10 -6 10 -12z m-160 -23 c0 -9 -9 -15 -24 -15 -13 0 -29 7 -36 15 -11 13 -7 15 24 15 25 0 36 -4 36 -15z m-56 -651 c12 -4 16 -20 16 -54 0 -48 1 -49 33 -52 17 -2 30 -5 28 -8 -2 -3 1 -15 7 -27 12 -22 12 -22 -25 -9 l-38 13 -34 -44 c-40 -51 -53 -50 -21 3 18 28 23 49 21 93 -1 31 -4 64 -7 74 -6 19 -3 20 20 11z m206 -848 c0 -18 -15 -36 -31 -36 -21 0 -22 1 -13 24 5 14 44 24 44 12z m-222 -56 c-5 -54 -29 -90 -60 -90 -18 0 -18 3 6 31 14 17 27 40 27 52 1 12 2 27 4 32 1 6 3 13 3 18 1 4 7 7 13 7 8 0 10 -17 7 -50z"/>
<path d="M6424 9978 c-4 -7 -14 -23 -22 -35 -9 -15 -10 -23 -3 -23 12 0 45 59 38 67 -3 2 -8 -2 -13 -9z"/>
<path d="M6426 9845 c-26 -26 -53 -45 -66 -45 -53 0 -76 -29 -148 -184 -108 -232 -175 -464 -184 -635 l-3 -65 50 -14 c72 -20 99 -34 110 -60 8 -18 18 -22 52 -22 41 0 42 -1 32 -24 -10 -21 -7 -32 21 -74 33 -52 56 -59 62 -19 2 18 11 22 50 25 45 3 46 2 53 -30 10 -44 21 -58 84 -108 l53 -42 62 12 c102 20 366 111 387 133 27 29 33 76 19 140 -16 69 -11 81 39 107 26 13 50 36 67 66 l28 47 -52 101 c-37 72 -52 112 -52 140 0 22 -5 66 -12 97 -12 57 -11 58 21 111 62 98 51 152 -44 232 l-47 39 -70 -7 c-62 -6 -76 -3 -129 20 -44 20 -68 25 -95 21 -31 -5 -43 -1 -78 27 -57 47 -79 56 -126 56 -35 0 -47 -6 -84 -45z m674 -719 c0 -16 -26 -46 -41 -46 -16 0 -10 18 13 40 26 24 28 24 28 6z m-177 -412 c-3 -8 -18 -18 -34 -21 -20 -4 -29 -12 -29 -24 0 -11 -7 -19 -15 -19 -44 0 27 78 72 80 7 0 10 -7 6 -16z"/>
<path d="M6082 8768 c64 -115 204 -212 328 -225 61 -6 62 -6 51 15 -6 11 -16 24 -21 27 -6 3 -10 15 -10 25 0 29 -11 30 -88 10 l-72 -18 -19 42 c-30 63 -131 166 -165 166 l-27 0 23 -42z"/>
<path d="M7260 7713 c76 -141 101 -217 103 -315 1 -43 4 -78 8 -78 3 0 27 7 53 16 62 21 91 72 81 143 -4 27 -1 59 5 76 11 29 9 32 -38 75 -27 25 -57 57 -66 72 -10 17 -45 42 -85 63 -38 19 -72 39 -76 45 -3 5 -14 10 -25 10 -15 0 -9 -17 40 -107z"/>
<path d="M8270 7770 c0 -6 27 -64 60 -129 71 -144 100 -225 100 -287 0 -43 1 -46 23 -40 99 29 126 30 197 9 l71 -20 -7 21 c-19 60 -22 63 -80 78 -32 7 -59 18 -61 23 -1 6 11 19 27 30 16 11 30 25 30 31 0 15 -77 103 -136 155 -83 74 -224 155 -224 129z"/>
<path d="M1950 7641 c-111 -35 -204 -115 -264 -230 -20 -38 -36 -72 -36 -75 0 -3 15 -6 33 -6 19 0 50 -12 77 -30 24 -16 65 -32 90 -36 48 -7 100 -29 100 -43 0 -4 11 -20 25 -35 17 -18 34 -26 58 -26 30 0 35 5 56 47 13 26 40 68 61 93 20 25 52 68 69 97 21 34 42 55 62 62 l31 11 -23 31 c-33 46 -134 117 -192 134 -54 16 -107 18 -147 6z"/>
<path d="M6511 7564 c-12 -32 -19 -59 -16 -62 5 -5 101 15 118 25 5 3 -8 20 -27 39 -20 19 -36 39 -36 44 0 27 -20 4 -39 -46z"/>
<path d="M7553 7542 c-8 -5 -12 -33 -11 -80 l2 -72 65 0 c36 0 77 -3 89 -7 l24 -6 -20 39 c-52 100 -111 150 -149 126z"/>
<path d="M3350 7504 c-41 -8 -124 -36 -134 -45 -14 -13 31 -56 70 -69 78 -26 105 -109 63 -192 l-21 -41 23 -48 c18 -40 20 -51 9 -64 -17 -20 -26 -12 -56 47 -23 46 -25 56 -15 88 6 21 11 62 11 91 l0 54 -51 29 c-50 28 -82 31 -134 12 -14 -5 -12 -1 8 14 41 32 36 55 -7 27 -57 -39 -216 -221 -216 -248 0 -4 24 6 53 21 28 15 68 31 87 35 31 7 33 6 22 -8 -8 -9 -36 -23 -63 -32 -36 -12 -60 -30 -91 -66 -27 -32 -44 -45 -49 -38 -8 13 -35 -35 -69 -121 -16 -41 -17 -50 -5 -50 27 0 84 61 95 100 8 31 35 59 46 48 6 -7 -34 -110 -51 -128 -9 -10 -41 -29 -70 -41 l-53 -22 -13 -76 c-8 -42 -14 -80 -14 -86 0 -5 22 -15 49 -22 27 -7 52 -16 56 -20 4 -4 17 -38 30 -76 21 -65 47 -97 79 -97 8 0 34 10 59 21 52 26 63 21 149 -53 30 -26 60 -48 67 -48 7 0 18 18 25 40 7 23 18 40 26 40 33 0 3 -78 -37 -97 -50 -24 -56 -23 -82 18 -39 58 -82 76 -147 61 -113 -26 -139 -13 -168 85 -13 45 -25 63 -51 81 -18 12 -39 22 -46 22 -28 0 -30 -169 -3 -275 17 -64 71 -175 85 -175 8 0 14 -6 14 -14 0 -16 60 -59 110 -79 63 -26 115 -30 182 -12 73 18 225 102 234 128 3 9 11 17 18 17 17 0 87 74 135 144 l41 60 -82 43 c-46 24 -94 43 -107 43 l-24 0 24 26 c23 25 23 26 5 39 -16 13 -18 23 -12 97 l7 83 -35 34 c-23 23 -36 44 -36 61 0 28 55 124 103 181 l29 34 -6 -48 c-4 -37 -2 -49 9 -53 24 -10 17 -23 -19 -38 -38 -16 -76 -53 -76 -74 0 -8 18 -35 41 -60 35 -40 40 -51 34 -77 -24 -107 -25 -105 6 -121 16 -8 51 -34 79 -59 85 -76 85 -76 120 2 83 182 124 351 120 493 -1 63 -6 91 -20 110 -24 33 -36 80 -21 80 6 0 11 6 11 14 0 24 -42 26 -144 5 -55 -11 -114 -19 -131 -17 -29 3 -32 5 -24 26 7 19 16 22 59 22 28 0 76 9 107 20 32 11 68 20 81 20 20 0 21 2 11 21 -24 46 -92 108 -140 128 -51 23 -124 33 -169 25z"/>
<path d="M6560 7479 c-36 -5 -70 -7 -77 -4 -31 11 -56 -233 -32 -317 5 -21 12 -38 15 -38 3 0 22 9 43 20 21 10 59 24 85 31 l46 11 0 67 c0 36 5 82 10 101 10 34 -5 142 -19 139 -3 -1 -35 -5 -71 -10z"/>
<path d="M9290 7471 c0 -6 12 -41 27 -78 24 -62 27 -83 31 -235 l4 -166 52 5 c47 5 59 1 139 -41 49 -25 90 -46 92 -46 6 0 -148 313 -189 382 -58 100 -156 212 -156 179z"/>
<path d="M2260 7401 c0 -15 6 -21 21 -21 15 0 19 -4 15 -16 -3 -9 -6 -19 -6 -24 0 -5 -13 -11 -30 -15 -47 -10 -76 -40 -100 -105 -17 -45 -30 -65 -52 -76 -25 -13 -27 -17 -17 -37 6 -12 18 -29 25 -38 12 -13 9 -23 -21 -69 -37 -57 -65 -79 -102 -80 -31 0 -29 7 17 69 56 75 55 87 -21 138 -25 18 -58 48 -73 67 -23 31 -33 36 -66 36 -26 0 -63 12 -107 35 -98 53 -103 49 -129 -67 -11 -54 -19 -100 -16 -102 2 -3 15 -1 29 5 32 12 33 12 27 -6 -4 -8 -12 -15 -20 -15 -7 0 -21 -11 -30 -25 -14 -21 -16 -46 -11 -158 2 -72 10 -160 17 -194 l12 -62 29 14 c15 8 36 15 47 15 27 0 42 20 42 55 0 57 88 156 183 206 17 10 17 8 7 -11 -6 -12 -34 -46 -60 -76 -49 -53 -53 -62 -65 -135 l-6 -37 63 -7 c152 -18 249 -121 264 -283 l7 -73 51 -29 c73 -43 104 -40 147 13 34 39 69 98 69 113 0 3 -16 -8 -35 -25 -38 -33 -114 -75 -122 -68 -2 3 7 13 22 24 65 46 78 58 133 126 57 70 60 75 78 172 38 206 17 461 -54 635 -48 119 -57 133 -89 135 -15 0 -38 4 -50 9 -19 6 -23 4 -23 -13z m-376 -267 c4 -11 1 -14 -11 -12 -9 2 -18 9 -21 16 -6 18 25 15 32 -4z m436 -213 c0 -20 -13 -42 -31 -52 -16 -8 -19 -6 -19 10 0 20 24 51 41 51 5 0 9 -4 9 -9z"/>
<path d="M7540 7298 c-48 -13 -58 -25 -84 -99 -24 -64 -55 -98 -42 -45 3 14 9 38 12 54 l7 27 -22 -19 c-33 -30 -79 -133 -97 -216 -33 -157 10 -364 102 -487 24 -32 25 -32 44 -13 31 31 43 25 37 -19 -4 -36 -3 -40 33 -60 22 -12 55 -21 81 -21 26 0 50 -7 61 -17 17 -15 25 -15 66 -5 161 43 257 199 256 417 -1 166 -50 299 -147 403 -90 95 -199 131 -307 100z"/>
<path d="M6711 7243 c0 -10 4 -27 8 -38 8 -20 8 -20 15 1 7 23 -1 54 -15 54 -5 0 -9 -8 -8 -17z"/>
<path d="M5693 7238 c-20 -25 -56 -103 -94 -205 -37 -99 -50 -147 -28 -110 14 25 29 21 29 -7 0 -18 10 -31 39 -47 21 -12 45 -32 52 -45 11 -22 19 -24 81 -24 37 0 68 2 68 5 0 3 -18 29 -39 58 -52 69 -70 129 -82 266 -6 64 -12 117 -13 119 -2 1 -8 -3 -13 -10z"/>
<path d="M8473 7214 c-93 -34 -161 -153 -170 -299 -10 -161 43 -308 154 -426 l66 -69 42 39 c23 21 52 42 64 46 41 13 101 167 101 259 -1 72 -23 99 -91 106 -41 4 -53 9 -60 26 -7 21 -5 22 49 20 31 0 87 2 123 7 l65 7 -4 -59 c-5 -74 2 -97 18 -54 10 28 36 50 47 40 2 -2 -3 -19 -11 -38 -18 -43 -10 -86 16 -95 19 -6 18 -7 -8 -25 -20 -13 -24 -19 -12 -19 9 0 26 -11 37 -26 l20 -25 12 22 c6 13 14 61 17 108 8 148 -35 265 -130 358 -97 95 -241 135 -345 97z"/>
<path d="M6755 7180 c-3 -5 1 -10 10 -10 9 0 13 5 10 10 -3 6 -8 10 -10 10 -2 0 -7 -4 -10 -10z"/>
<path d="M6617 7079 c-155 -35 -225 -181 -202 -422 6 -73 8 -77 33 -83 80 -17 100 -51 33 -56 -38 -3 -39 -4 -27 -26 l12 -23 69 51 c37 28 70 49 72 46 2 -2 -4 -20 -14 -40 -14 -30 -15 -41 -5 -56 7 -12 8 -21 2 -25 -6 -4 -17 -21 -25 -38 -8 -18 -20 -39 -26 -48 -17 -24 21 -74 61 -83 25 -5 30 -10 25 -25 -8 -25 60 -85 134 -119 97 -45 229 -29 281 33 24 29 2 26 -79 -11 -88 -40 -115 -38 -64 4 128 108 124 106 145 93 31 -19 58 -5 59 32 0 18 4 41 8 52 6 15 -1 30 -33 66 -91 101 -98 118 -102 231 -2 57 -7 144 -11 195 l-8 92 -65 56 c-102 88 -190 122 -273 104z m52 -353 c28 -45 27 -53 -14 -60 -22 -4 -35 -13 -35 -22 0 -9 -6 -14 -12 -11 -7 2 -12 13 -10 23 5 33 34 104 43 104 4 0 17 -15 28 -34z"/>
<path d="M914 6955 c24 -63 19 -90 -32 -181 -28 -49 -58 -113 -68 -143 -21 -64 -20 -66 87 -107 55 -20 77 -36 111 -76 59 -70 114 -125 177 -177 l54 -45 49 55 c26 30 70 79 98 110 l49 55 -43 86 c-89 177 -187 293 -305 362 -58 34 -64 35 -76 20 -14 -20 -35 -11 -35 16 0 21 -4 25 -44 34 -24 6 -27 4 -22 -9z m165 -234 c12 -8 12 -12 2 -25 -19 -23 -31 -20 -31 9 0 27 6 30 29 16z"/>
<path d="M677 6888 c-47 -59 -48 -63 -37 -93 10 -26 9 -27 -15 -21 -20 5 -25 3 -25 -14 0 -11 9 -29 20 -40 25 -25 25 -32 2 -53 -28 -26 -38 -20 -34 17 3 23 -1 35 -12 39 -17 7 -23 -7 -31 -71 -3 -24 -12 -57 -20 -72 -20 -38 -19 -40 12 -40 29 0 104 40 145 77 14 14 29 25 32 24 19 -3 25 1 32 22 4 12 17 31 29 43 12 11 30 44 40 74 16 49 16 53 1 62 -9 5 -34 27 -55 49 -22 21 -42 39 -45 39 -2 0 -20 -19 -39 -42z"/>
<path d="M9325 6890 c-17 -5 -44 -23 -59 -39 -28 -29 -28 -31 -12 -55 9 -14 16 -37 16 -51 0 -14 5 -26 10 -26 6 -1 14 -2 19 -3 15 -2 64 -78 67 -103 1 -13 12 -35 23 -49 12 -15 21 -41 21 -58 l-1 -31 -15 28 c-11 20 -20 26 -34 22 -17 -6 -33 17 -29 41 4 24 -4 35 -35 48 -28 12 -33 18 -29 39 4 19 0 27 -15 31 -11 4 -25 20 -32 36 -7 16 -16 28 -20 25 -18 -11 -35 -138 -34 -260 1 -112 4 -141 28 -212 33 -101 90 -188 159 -241 133 -103 239 -109 334 -19 23 22 30 34 23 43 -7 7 -7 20 -1 36 14 38 -14 90 -48 86 -25 -3 -36 -18 -59 -78 -9 -24 -10 -23 -17 15 -5 26 -18 49 -39 67 -40 34 -29 45 19 17 37 -22 37 -22 56 -2 28 28 32 74 8 80 -25 7 -14 23 17 23 20 0 24 -5 24 -30 0 -29 13 -40 25 -20 3 6 13 10 22 10 13 0 15 -8 10 -45 -7 -44 -6 -45 22 -45 34 0 37 5 53 115 17 117 0 233 -48 334 -41 89 -160 214 -239 251 -54 26 -141 35 -190 20z"/>
<path d="M5537 6781 c-3 -36 -4 -67 -2 -69 2 -2 27 10 56 27 41 23 49 32 36 37 -9 3 -17 16 -17 28 0 17 -9 25 -34 33 l-33 10 -6 -66z"/>
<path d="M7071 6622 c-7 -31 -15 -63 -18 -69 -2 -7 4 -16 14 -19 10 -4 28 -16 41 -27 12 -11 22 -18 22 -16 0 12 -39 181 -42 185 -2 2 -10 -22 -17 -54z"/>
<path d="M5682 6631 c-25 -23 -39 -29 -60 -25 -20 4 -33 0 -46 -15 l-19 -21 84 6 c116 7 169 14 169 22 -1 24 -20 34 -53 28 -31 -6 -36 -4 -39 14 -3 20 -5 19 -36 -9z"/>
<path d="M1680 6617 c-30 -11 -35 -17 -33 -42 3 -45 96 -224 143 -278 71 -80 154 -127 252 -141 42 -6 48 -5 61 16 27 42 30 66 8 73 -25 8 -30 23 -42 124 -10 91 -34 155 -67 184 -56 50 -254 89 -322 64z m337 -264 c5 -13 -31 -53 -48 -53 -7 0 -5 10 5 25 9 14 14 30 10 36 -4 7 1 10 11 7 10 -1 20 -8 22 -15z"/>
<path d="M8776 6602 c-18 -4 -19 -28 -1 -74 5 -13 2 -15 -14 -11 -29 8 -26 -6 10 -43 20 -20 29 -39 26 -48 -9 -24 -24 -19 -49 14 -16 22 -30 30 -53 30 -31 0 -65 -25 -65 -48 0 -6 -8 -15 -17 -21 -27 -15 -8 -24 59 -29 51 -4 69 -1 106 19 l44 24 -7 90 c-4 50 -10 93 -13 96 -4 3 -15 4 -26 1z"/>
<path d="M6026 6536 c42 -37 42 -58 -1 -30 -34 22 -85 21 -103 -3 -11 -15 -14 -16 -22 -3 -5 8 -10 22 -10 30 0 8 -9 0 -20 -17 -11 -18 -24 -33 -30 -33 -5 0 -10 -9 -10 -21 0 -19 4 -20 69 -13 78 7 96 1 156 -57 45 -43 101 -61 111 -36 13 36 -122 217 -162 217 -12 0 -6 -10 22 -34z"/>
<path d="M670 6551 c-40 -12 -103 -47 -128 -71 -20 -18 -21 -27 -16 -78 11 -105 45 -256 74 -328 34 -87 79 -174 80 -156 0 6 12 12 28 12 22 0 32 8 47 38 10 20 20 38 21 40 1 2 16 -4 33 -12 38 -20 38 -20 44 4 3 11 14 20 25 20 35 0 268 79 296 101 33 26 58 73 50 93 -3 9 -36 34 -72 57 -37 23 -105 81 -152 130 -56 57 -95 90 -115 94 -88 20 -104 27 -110 45 -5 15 -15 20 -43 19 -20 0 -48 -4 -62 -8z"/>
<path d="M4216 6523 c-3 -16 -15 -89 -27 -163 -12 -74 -25 -144 -30 -155 -13 -34 -11 41 5 125 8 41 17 105 21 143 6 66 6 67 -17 67 -32 -1 -121 -39 -199 -85 -35 -21 -101 -76 -146 -123 l-83 -85 0 -86 0 -85 -46 -47 -47 -48 30 -48 c17 -26 37 -60 44 -75 l14 -27 83 36 c69 30 87 42 100 70 15 32 17 33 79 33 l63 0 43 -60 c23 -33 46 -58 52 -56 5 1 14 16 18 32 7 23 23 36 80 64 125 62 127 78 10 82 -60 2 -88 7 -91 16 -3 10 19 12 110 7 l113 -7 53 52 c51 50 52 52 52 111 0 71 -19 113 -60 134 -37 19 -38 38 -5 77 40 47 34 72 -27 102 -40 20 -67 26 -119 26 -66 0 -68 -1 -73 -27z"/>
<path d="M8150 6471 c0 -58 4 -84 15 -95 8 -8 24 -35 35 -60 17 -41 23 -46 52 -46 18 0 58 -7 88 -15 98 -26 97 -21 -13 88 -58 58 -116 126 -132 155 -15 29 -32 52 -37 52 -4 0 -8 -36 -8 -79z"/>
<path d="M5514 6506 c-9 -15 -14 -29 -11 -32 3 -3 13 6 23 20 9 15 14 29 11 32 -3 3 -13 -6 -23 -20z"/>
<path d="M5513 6447 c-41 -42 -50 -56 -42 -70 6 -9 15 -17 21 -17 7 0 22 -9 34 -21 20 -19 24 -19 46 -6 12 9 46 19 73 22 62 9 128 36 103 42 -11 3 -18 14 -18 28 0 38 -71 43 -112 7 -12 -10 -18 -11 -18 -3 0 6 9 19 20 28 11 10 20 21 20 26 0 12 -43 -12 -63 -37 -19 -21 -19 -21 -13 17 2 20 4 37 3 36 -1 0 -25 -24 -54 -52z"/>
<path d="M6516 6442 c-17 -19 -24 -35 -20 -45 10 -26 19 -20 39 23 23 50 16 58 -19 22z"/>
<path d="M4487 6398 l-19 -33 34 -29 c71 -63 79 -91 51 -189 -15 -53 -18 -58 -39 -53 -19 5 -26 0 -38 -23 -18 -35 -13 -41 33 -41 32 0 39 5 60 42 20 35 24 54 22 107 -3 87 -56 251 -81 251 -3 0 -13 -15 -23 -32z"/>
<path d="M7280 6400 c0 -13 7 -20 20 -20 11 0 20 3 20 8 0 4 -9 13 -20 20 -18 11 -20 10 -20 -8z"/>
<path d="M8069 6384 c-19 -19 -61 -45 -92 -58 l-58 -23 117 -7 c63 -4 118 -5 121 -3 2 3 -9 32 -25 65 l-29 60 -34 -34z"/>
<path d="M5830 6354 c-56 -35 -100 -56 -130 -60 -25 -3 -66 -13 -92 -21 -42 -13 -52 -13 -93 0 -45 16 -45 16 -45 -7 0 -46 32 -144 75 -232 155 -316 521 -370 651 -95 33 69 42 171 24 275 -17 99 -19 101 -65 82 -56 -24 -69 -20 -110 30 -40 49 -90 85 -115 83 -8 0 -53 -25 -100 -55z m68 -56 c7 -7 12 -16 12 -20 0 -15 -27 -8 -45 12 -18 19 -17 20 1 20 11 0 25 -5 32 -12z"/>
<path d="M1387 6303 c-60 -74 -127 -170 -127 -183 0 -4 20 -20 45 -35 52 -30 131 -102 122 -111 -11 -11 -48 8 -119 62 -39 30 -76 54 -81 54 -5 0 -17 -10 -27 -22 -13 -16 -32 -24 -71 -28 -53 -5 -54 -6 -51 -34 3 -25 1 -28 -15 -22 -10 4 -39 10 -64 13 -38 5 -56 1 -96 -21 -27 -15 -62 -38 -78 -51 l-30 -24 27 -27 c30 -31 46 -27 28 6 -15 28 -9 33 18 14 13 -9 24 -30 28 -54 5 -33 11 -39 33 -42 14 -2 26 -7 26 -13 0 -19 -56 -16 -114 6 -54 21 -58 25 -50 46 10 26 5 30 -36 34 -25 3 -30 0 -30 -17 0 -32 83 -133 171 -208 63 -54 79 -64 86 -51 13 22 27 18 34 -9 6 -26 45 -40 146 -52 167 -20 294 105 338 333 19 99 16 123 -16 123 -7 0 -16 5 -20 11 -5 8 1 10 19 5 14 -3 28 -2 31 3 10 15 -11 210 -30 289 -10 40 -23 72 -30 72 -6 0 -37 -30 -67 -67z m-397 -449 c0 -7 -9 -18 -20 -24 -17 -9 -20 -8 -20 9 0 36 11 53 26 40 8 -6 14 -17 14 -25z"/>
<path d="M7334 6298 l-61 -9 -6 -44 c-4 -24 -16 -64 -29 -89 l-22 -46 21 -21 21 -22 44 25 c23 14 67 40 97 59 35 22 75 37 119 44 l65 11 -88 52 c-49 29 -91 51 -94 51 -3 -1 -34 -6 -67 -11z"/>
<path d="M2166 6194 c-3 -9 -6 -18 -6 -20 0 -8 43 7 65 22 18 13 17 14 -17 14 -23 0 -38 -5 -42 -16z"/>
<path d="M7867 6183 c-69 -5 -70 -14 -3 -60 77 -53 93 -53 138 -5 34 37 41 40 64 32 32 -13 94 -13 114 0 13 8 13 10 0 14 -21 7 -205 26 -232 24 -13 -1 -49 -3 -81 -5z"/>
<path d="M3683 6168 c-18 -23 -83 -138 -78 -138 3 0 23 18 46 41 26 26 42 53 46 75 6 36 2 42 -14 22z"/>
<path d="M6390 6145 c0 -64 -27 -173 -60 -243 -16 -35 -30 -65 -30 -67 0 -1 42 19 93 45 50 26 98 49 104 51 17 5 -1 73 -26 97 -10 9 -21 37 -24 61 -4 29 -14 53 -31 70 l-26 26 0 -40z"/>
<path d="M8992 6158 c2 -6 10 -14 16 -16 7 -2 10 2 6 12 -7 18 -28 22 -22 4z"/>
<path d="M7630 6134 c-47 -14 -121 -41 -165 -60 -44 -20 -97 -43 -117 -51 -21 -9 -38 -19 -38 -23 0 -4 24 -33 53 -66 109 -121 120 -152 96 -264 -8 -39 -17 -54 -35 -62 -13 -6 -27 -9 -30 -6 -3 4 -1 32 5 64 24 126 21 135 -71 232 -45 48 -82 88 -83 89 0 1 -55 -9 -120 -22 -66 -13 -142 -26 -170 -30 l-50 -7 24 -19 c29 -23 82 -24 163 -3 33 8 62 13 65 10 13 -12 -172 -86 -216 -86 -16 0 -54 12 -85 26 -67 30 -90 28 -189 -23 -50 -26 -75 -34 -97 -29 -33 6 -48 -5 -86 -66 -15 -23 -40 -46 -60 -54 -20 -8 -34 -20 -31 -27 2 -7 13 -39 23 -71 18 -58 18 -59 -1 -70 -33 -19 -146 -130 -161 -158 -8 -15 -14 -38 -14 -51 0 -13 -13 -49 -30 -80 -32 -60 -36 -90 -20 -148 9 -32 18 -40 66 -59 30 -13 59 -31 64 -41 12 -21 13 -62 3 -57 -88 45 -136 62 -188 66 -53 3 -67 0 -120 -29 -33 -18 -81 -43 -107 -56 -26 -13 -64 -44 -85 -68 -20 -25 -45 -47 -55 -51 -29 -9 -98 -104 -98 -135 0 -36 37 -99 59 -99 21 0 55 -56 47 -76 -8 -21 4 -40 14 -23 11 18 80 -35 80 -62 0 -21 -15 -25 -27 -6 -4 6 -17 19 -27 27 -18 14 -19 14 -6 -10 45 -85 169 -250 259 -343 134 -137 273 -228 420 -272 24 -7 24 -7 17 41 -12 94 -45 172 -97 231 -35 40 -54 73 -65 112 -29 106 -45 138 -99 201 -59 68 -63 82 -43 155 13 48 10 64 -36 168 -10 22 -12 37 -6 37 6 0 16 -14 22 -30 5 -17 18 -35 28 -40 26 -14 31 -58 13 -122 -20 -75 -12 -101 45 -142 50 -37 72 -67 92 -129 11 -37 14 -39 44 -33 17 3 82 9 144 12 112 7 113 7 128 36 8 16 46 77 85 135 38 58 69 108 69 113 0 4 -10 20 -22 36 -19 23 -24 44 -27 113 -2 54 -9 94 -18 108 -13 20 -130 97 -236 155 -19 11 -53 18 -83 18 -36 0 -59 6 -75 19 -34 28 -20 33 52 21 35 -5 84 -10 109 -10 39 0 47 -4 61 -28 10 -18 51 -48 112 -82 53 -29 99 -60 101 -69 3 -9 10 -45 15 -81 6 -36 25 -94 43 -130 28 -55 44 -72 103 -113 76 -52 122 -93 113 -102 -2 -3 -17 4 -31 15 -15 12 -49 24 -78 27 -45 5 -54 10 -71 40 -20 33 -21 33 -40 16 -33 -30 -87 -108 -127 -185 l-38 -73 -69 3 c-87 4 -191 -12 -215 -34 -27 -25 -24 -47 16 -96 76 -95 99 -135 132 -227 19 -52 39 -101 44 -107 15 -19 116 -34 221 -34 271 0 648 102 1002 270 l108 52 152 -61 c230 -91 429 -148 596 -170 221 -29 435 -24 611 15 l66 15 -5 48 c-4 46 -3 49 27 64 31 15 31 15 25 -9 -4 -13 -1 -37 6 -53 12 -29 13 -29 49 -16 76 26 219 105 296 162 76 57 163 143 221 218 26 35 26 36 8 50 -10 8 -24 15 -30 15 -9 0 -142 66 -257 128 -21 11 -44 28 -50 36 -7 9 -33 19 -62 22 -40 5 -63 1 -115 -20 -109 -45 -138 -45 -204 -1 -31 21 -63 50 -71 65 -8 15 -28 33 -44 40 -33 13 -30 15 -159 -82 -57 -43 -68 -48 -117 -48 -46 0 -55 -3 -61 -22 -6 -20 -7 -19 -20 11 -8 19 -14 35 -14 37 0 2 18 4 40 4 55 0 103 22 129 59 13 17 49 49 82 72 32 22 59 42 59 45 0 2 -18 39 -39 82 -30 59 -46 80 -68 88 -24 9 -31 19 -36 50 -9 53 -9 104 1 104 4 0 31 22 60 48 l54 48 -12 44 c-7 25 -25 60 -41 78 -16 18 -29 35 -29 39 0 3 16 23 34 44 19 21 40 56 46 78 8 29 24 51 63 82 28 24 56 46 60 50 5 4 4 15 -1 25 -6 11 -13 27 -16 37 -4 14 -17 17 -66 17 -59 0 -64 2 -119 50 l-58 50 -96 0 c-104 0 -139 9 -177 45 -14 13 -46 33 -72 45 -46 20 -65 36 -55 46 7 7 57 -17 104 -49 38 -27 52 -30 139 -35 92 -5 96 -4 86 14 -26 46 -191 188 -301 258 -65 42 -75 46 -90 33 -30 -27 -76 -45 -155 -62 -43 -8 -87 -20 -97 -26 -38 -20 -15 -86 48 -138 l38 -31 -33 -1 c-17 -1 -37 -2 -43 -3 -6 -1 -19 15 -28 34 -11 24 -26 37 -49 44 l-33 9 7 54 c3 29 2 53 -2 53 -5 0 -36 -5 -69 -10 -56 -9 -61 -8 -85 15 l-25 24 -62 -35 c-68 -38 -116 -88 -109 -113 2 -9 7 -26 11 -38 3 -13 2 -23 -3 -23 -15 0 -32 57 -32 105 0 38 3 44 27 50 14 3 51 23 81 43 l55 36 -34 25 c-18 15 -52 43 -75 64 -23 20 -50 37 -60 36 -11 0 -57 -11 -104 -25z m732 -373 c4 -24 18 -61 32 -81 l24 -37 -26 -34 c-14 -19 -50 -64 -79 -100 -29 -36 -53 -75 -53 -85 0 -25 -59 -84 -85 -84 -12 0 -30 -9 -40 -20 -30 -33 -29 -14 0 24 31 40 31 40 -14 25 -20 -7 -36 -22 -42 -38 -9 -23 -11 -24 -20 -8 -23 41 32 102 105 116 26 5 59 19 73 32 24 22 123 165 123 177 0 3 -10 16 -21 28 -27 29 -45 114 -27 126 26 16 42 3 50 -41z m-1132 -126 c0 -17 -8 -29 -25 -37 -14 -6 -25 -17 -25 -25 0 -8 -11 -13 -28 -13 -21 0 -30 -7 -40 -30 -13 -29 -32 -41 -32 -20 0 6 -12 10 -26 10 -60 0 0 64 76 81 24 5 54 21 66 34 29 31 34 31 34 0z m1520 -95 c124 -84 135 -98 134 -174 l-1 -63 35 -9 c20 -5 38 -15 40 -23 3 -10 0 -12 -13 -8 -40 16 -61 17 -77 5 -14 -11 -15 -21 -6 -71 8 -46 7 -65 -3 -85 -12 -24 -14 -5 -17 160 l-2 188 -77 50 c-41 27 -82 50 -89 50 -16 0 -54 35 -54 50 0 14 25 1 130 -70z m-1350 -52 c29 -77 39 -94 58 -96 33 -5 24 -36 -11 -40 -39 -5 -62 19 -87 87 -12 31 -28 66 -36 78 l-14 23 -40 -21 c-21 -11 -51 -19 -67 -17 -25 4 -24 5 17 17 25 7 63 24 85 37 22 13 45 24 50 24 6 0 26 -42 45 -92z m224 -67 c3 -5 15 -7 27 -4 11 3 32 0 46 -8 23 -12 25 -18 20 -59 -5 -40 -2 -48 24 -76 16 -17 44 -59 62 -95 29 -58 35 -64 67 -67 42 -4 176 15 207 30 16 8 37 7 80 -5 88 -24 172 -35 350 -46 89 -5 170 -15 180 -21 14 -9 -9 -10 -97 -5 -293 16 -417 24 -437 30 -12 4 -37 2 -55 -4 -77 -25 -257 -50 -292 -40 -46 13 -55 29 -17 29 17 0 31 3 31 7 0 3 -31 40 -68 82 -82 90 -92 108 -85 143 3 15 3 38 -1 51 -5 20 -12 24 -38 24 -132 -4 -167 9 -88 31 46 13 77 14 84 3z m-1324 -322 c0 -12 -7 -19 -20 -19 -22 0 -26 20 -8 38 15 15 28 6 28 -19z m1436 -84 l1 -105 -26 0 c-37 0 -171 -87 -171 -111 0 -5 14 -21 30 -36 33 -29 34 -31 21 -52 -8 -12 -16 -9 -47 15 -21 16 -42 32 -46 35 -5 3 5 35 21 71 30 68 57 88 117 88 23 0 24 4 24 63 0 55 4 67 31 100 17 20 34 37 37 37 4 0 7 -47 8 -105z m-756 -25 c0 -21 -33 -29 -45 -10 -9 15 4 30 26 30 12 0 19 -7 19 -20z m-65 -272 c15 -12 34 -36 41 -54 15 -36 19 -114 6 -114 -15 0 -32 24 -32 47 0 12 -13 38 -30 56 -28 32 -41 87 -21 87 4 0 21 -10 36 -22z m945 -68 c9 -16 8 -20 -5 -20 -22 0 -55 18 -55 30 0 19 49 10 60 -10z m810 -25 c10 -13 11 -18 1 -28 -10 -9 -17 -7 -32 12 -25 31 -26 55 -1 42 10 -5 25 -17 32 -26z m1030 -197 c0 -4 -6 -11 -13 -15 -16 -10 -39 -88 -37 -129 0 -27 -5 -34 -32 -45 -29 -11 -31 -13 -11 -16 21 -4 20 -6 -12 -34 -19 -17 -39 -28 -45 -24 -6 4 -10 -8 -10 -30 0 -21 -4 -34 -10 -30 -5 3 -16 -10 -24 -30 -11 -27 -23 -37 -46 -41 -17 -4 -37 -16 -45 -28 -15 -20 -15 -19 -15 11 0 22 6 36 20 43 11 6 20 18 20 26 0 9 16 32 35 51 l36 36 -27 28 c-15 15 -40 31 -55 34 -48 11 -29 35 27 35 17 0 25 -7 30 -24 8 -32 37 -58 57 -50 15 5 48 94 51 139 1 11 7 31 13 45 6 14 14 33 17 42 3 12 15 16 40 15 20 -1 36 -5 36 -9z m-942 -146 c3 -9 -3 -13 -19 -10 -12 1 -24 9 -27 16 -3 9 3 13 19 10 12 -1 24 -9 27 -16z m-1814 -429 c-9 -35 -10 -37 -29 -30 -8 4 -15 18 -15 32 0 20 5 25 25 25 23 0 25 -3 19 -27z"/>
<path d="M8254 6135 c-3 -7 -4 -24 -2 -37 2 -18 10 -24 37 -26 34 -4 91 14 91 28 0 5 -27 17 -61 29 -49 16 -61 18 -65 6z"/>
<path d="M8667 6135 c5 -7 48 -50 96 -95 82 -77 127 -139 127 -174 0 -12 15 -8 73 16 56 23 92 31 165 35 80 5 91 8 80 21 -7 8 -32 23 -55 33 -27 12 -51 32 -67 57 -27 43 -103 92 -142 92 -13 0 -24 6 -24 13 0 9 -34 12 -130 14 -106 1 -129 -1 -123 -12z"/>
<path d="M8031 6081 l-31 -39 36 -12 c48 -16 114 -8 158 20 44 27 38 40 -18 40 -24 0 -60 7 -79 15 l-36 15 -30 -39z"/>
<path d="M2395 6058 c-91 -12 -190 -66 -284 -154 -45 -42 -81 -80 -81 -85 0 -5 11 -11 25 -15 14 -3 30 -15 36 -25 9 -18 5 -19 -50 -19 -57 0 -61 -2 -67 -26 -4 -15 -30 -52 -58 -84 -56 -63 -126 -188 -126 -226 0 -27 30 -94 42 -94 4 0 5 6 2 14 -3 8 3 15 14 18 14 4 23 -1 31 -18 10 -22 8 -24 -15 -24 -19 0 -25 -4 -20 -15 3 -8 1 -15 -3 -15 -11 0 -67 63 -73 81 -7 21 -54 -15 -77 -59 -10 -20 -35 -57 -55 -82 -22 -28 -31 -47 -24 -51 7 -5 3 -18 -12 -39 -13 -18 -32 -60 -44 -94 -20 -58 -24 -62 -76 -88 -43 -20 -65 -40 -101 -90 -28 -39 -59 -70 -82 -80 -20 -10 -43 -28 -50 -40 -18 -28 -52 -191 -44 -211 3 -8 39 -31 80 -53 67 -34 78 -37 101 -26 23 10 25 15 16 33 -7 11 -28 39 -48 61 -29 32 -33 41 -21 48 8 5 32 20 54 32 21 13 56 40 77 61 39 39 62 46 71 23 4 -9 14 -12 27 -9 29 8 108 -25 122 -50 6 -12 19 -47 28 -78 l17 -57 -31 -13 c-19 -9 -29 -20 -27 -29 2 -8 6 -28 8 -45 3 -16 7 -37 11 -45 6 -16 9 -28 11 -47 0 -7 12 -13 26 -13 29 0 34 -16 8 -23 -16 -4 -15 -5 2 -6 10 0 29 11 42 27 18 22 22 24 23 9 0 -33 -20 -56 -73 -82 -47 -23 -53 -23 -64 -8 -7 9 -14 21 -16 27 -3 7 -12 4 -26 -8 -19 -17 -21 -17 -21 -2 0 9 11 21 25 26 43 16 24 75 -35 105 -38 19 -36 20 -48 -14 -7 -18 -19 -31 -37 -35 -15 -4 -28 -6 -29 -4 -41 86 -46 89 -131 74 -35 -6 -47 -3 -100 29 -33 21 -73 41 -89 46 l-29 8 7 -88 c7 -87 7 -89 -29 -162 l-36 -74 45 -40 c138 -123 321 -182 631 -204 116 -8 132 -8 147 7 38 39 29 51 -85 110 -160 84 -205 127 -178 171 7 11 17 6 48 -28 23 -26 62 -54 99 -71 34 -15 64 -32 68 -38 4 -6 21 -8 41 -5 31 5 39 1 72 -33 20 -22 44 -37 52 -36 9 2 39 25 66 51 77 73 86 76 208 74 86 -2 107 1 107 12 0 27 23 28 44 2 38 -46 57 -39 91 30 50 103 79 117 43 20 -11 -32 -19 -59 -17 -62 3 -2 29 2 59 10 72 19 107 19 65 0 -57 -27 -187 -75 -201 -75 -8 0 -14 -7 -14 -15 0 -17 -21 -20 -36 -5 -6 6 -53 13 -105 16 -122 8 -169 -4 -206 -54 -38 -50 -50 -59 -103 -75 l-45 -14 70 -7 c239 -23 600 -73 890 -122 159 -27 178 -27 343 3 83 15 95 20 107 44 19 35 45 46 45 18 0 -19 4 -18 61 12 60 32 205 157 194 167 -3 3 -29 -11 -58 -31 -30 -21 -78 -44 -107 -53 -30 -9 -75 -27 -101 -40 -26 -14 -63 -28 -83 -31 -36 -6 -36 -5 -36 29 0 27 -11 49 -42 89 -28 34 -36 50 -25 46 10 -4 23 -7 28 -7 5 0 9 -7 9 -15 0 -8 18 -27 40 -41 57 -38 125 -30 259 28 l102 44 -19 25 c-32 40 -43 69 -37 89 11 33 23 22 31 -25 6 -45 39 -84 55 -67 16 16 58 160 52 180 -3 12 0 29 7 37 10 13 10 36 0 121 l-13 105 -31 -6 c-17 -4 -55 -15 -84 -26 -29 -10 -61 -19 -72 -19 -10 0 -22 -9 -25 -21 -6 -19 -1 -113 11 -179 3 -20 1 -19 -11 8 -8 18 -20 65 -26 105 l-11 74 -51 9 c-35 6 -53 14 -55 25 -3 14 3 15 40 8 74 -14 150 -10 197 11 24 11 59 20 78 20 33 0 35 1 28 27 -3 15 -10 30 -14 33 -4 3 -11 19 -15 35 -14 58 -98 175 -206 287 l-108 113 -19 -35 c-21 -39 -92 -120 -93 -105 0 6 15 35 34 64 66 102 66 99 -5 188 -88 110 -224 319 -315 480 -130 234 -175 292 -199 253 -3 -5 -13 -10 -22 -10 -13 0 -15 9 -10 46 l5 46 -58 37 c-95 61 -194 84 -305 69z m95 -309 c0 -23 -105 -70 -134 -59 -16 5 -14 10 18 36 27 21 48 29 76 29 22 0 40 -3 40 -6z m-182 -432 c4 -33 -17 -36 -44 -6 -16 17 -16 22 -4 30 25 15 45 5 48 -24z m444 -39 c-28 -64 -67 -104 -125 -131 -29 -13 -89 -41 -134 -62 -46 -21 -83 -42 -83 -47 0 -5 13 -21 30 -36 21 -20 33 -42 40 -80 5 -28 21 -74 34 -101 14 -27 30 -67 35 -88 5 -21 12 -46 16 -55 5 -14 2 -18 -14 -18 -15 0 -21 6 -21 23 0 22 -6 34 -67 147 -17 30 -34 72 -37 93 -4 21 -20 52 -36 70 -26 30 -32 32 -82 28 -148 -11 -191 -7 -243 25 -30 18 -59 46 -72 70 l-22 39 -60 -3 c-71 -4 -101 3 -101 25 0 9 -7 25 -17 35 -22 24 -12 32 21 16 19 -8 26 -17 23 -30 -5 -16 3 -18 79 -18 81 0 85 -1 96 -25 12 -26 121 -104 148 -106 81 -5 207 24 320 75 52 23 110 49 128 56 17 7 60 44 93 82 34 38 64 67 66 64 3 -2 -4 -24 -15 -48z m-712 -18 c0 -21 -18 -31 -75 -44 l-30 -6 37 35 c42 39 68 45 68 15z m1196 -315 c8 -20 -4 -65 -17 -65 -15 0 -22 27 -15 55 7 28 24 33 32 10z m-766 -284 c0 -6 -9 -17 -21 -25 -21 -14 -21 -15 25 -103 48 -93 89 -203 75 -203 -5 0 -16 -16 -24 -37 -8 -20 -17 -34 -20 -31 -3 2 -1 34 3 71 7 55 6 69 -8 84 -9 10 -36 60 -60 112 l-43 95 29 23 c31 25 44 29 44 14z m567 -68 c4 -9 -3 -33 -15 -54 -12 -21 -22 -46 -23 -56 0 -17 -1 -17 -12 -1 -10 15 -15 14 -53 -17 -52 -43 -84 -39 -84 10 0 34 33 85 55 85 7 0 21 -12 30 -27 l18 -27 14 39 c19 57 57 83 70 48z m443 -34 c0 -15 -4 -19 -16 -15 -9 3 -18 6 -20 6 -2 0 -4 7 -4 15 0 8 9 15 20 15 14 0 20 -7 20 -21z m-1685 -1 c25 -11 35 -51 16 -63 -11 -6 -51 42 -51 61 0 17 2 17 35 2z m-331 -243 c-4 -8 -17 -15 -29 -15 -13 0 -30 -3 -39 -6 -12 -4 -16 0 -16 15 0 18 6 21 45 21 35 0 43 -3 39 -15z m1535 -407 c-4 -24 -8 -46 -9 -50 0 -5 -7 -8 -16 -8 -13 0 -15 7 -10 30 7 36 -11 41 -20 5 -7 -27 -20 -33 -27 -12 -3 9 -12 8 -38 -4 -37 -17 -59 -15 -59 7 0 8 6 11 16 7 10 -4 22 1 30 12 8 10 20 15 29 11 11 -4 25 3 38 19 13 14 33 25 48 25 26 0 26 -1 18 -42z"/>
<path d="M6567 6015 c8 -25 19 -48 24 -51 15 -9 130 7 123 17 -3 5 -13 9 -22 9 -9 0 -43 16 -75 35 -32 19 -60 35 -62 35 -2 0 3 -20 12 -45z"/>
<path d="M4547 6017 c-28 -30 -28 -31 -8 -50 19 -20 20 -20 31 22 15 58 10 64 -23 28z"/>
<path d="M4375 5963 c-14 -15 -25 -32 -25 -37 0 -4 -6 -3 -14 3 -24 20 -136 -38 -136 -71 0 -17 38 -7 82 21 l46 29 32 -33 c34 -35 138 -91 149 -80 3 4 13 25 22 48 15 41 15 43 -13 84 -47 70 -99 83 -143 36z"/>
<path d="M3584 5909 c-4 -8 -11 -34 -16 -59 -28 -157 -26 -163 38 -118 69 49 73 60 45 112 -30 57 -56 82 -67 65z"/>
<path d="M4010 5905 c0 -9 9 -15 25 -15 16 0 25 6 25 15 0 9 -9 15 -25 15 -16 0 -25 -6 -25 -15z"/>
<path d="M3956 5888 c-9 -12 -16 -35 -16 -51 0 -23 -7 -31 -37 -43 -83 -34 -161 -74 -202 -105 l-44 -32 27 -14 c25 -13 29 -12 58 12 17 14 44 33 61 41 27 15 31 15 39 0 13 -23 21 -20 41 14 10 16 34 42 53 57 29 21 37 24 44 13 7 -11 12 -9 27 9 12 14 27 22 38 19 17 -3 10 -13 -40 -61 -32 -31 -56 -57 -53 -57 13 0 82 33 128 61 57 35 63 57 25 94 -18 19 -35 25 -70 25 -38 0 -45 3 -45 20 0 26 -15 25 -34 -2z"/>
<path d="M4258 5786 c-68 -33 -84 -45 -77 -57 14 -23 11 -29 -17 -29 -23 0 -26 3 -22 25 5 25 -5 34 -17 15 -3 -5 -32 -17 -63 -26 -31 -9 -83 -27 -115 -41 -38 -15 -63 -21 -70 -15 -22 17 -67 20 -67 5 0 -8 -16 -29 -35 -46 -19 -17 -35 -35 -35 -41 0 -6 11 -29 24 -51 l24 -40 13 28 c7 15 18 27 26 27 18 0 17 -7 -8 -46 -32 -53 -15 -102 51 -142 28 -18 31 -22 17 -28 -10 -3 -38 1 -62 11 -25 9 -49 14 -54 11 -11 -7 -27 -57 -34 -108 -6 -37 -5 -37 36 -43 56 -8 229 29 285 61 2 1 -5 22 -16 47 -25 56 -67 86 -132 94 -74 9 -61 33 18 33 66 -1 118 -32 147 -89 14 -28 28 -51 31 -51 15 0 138 107 191 165 76 83 196 278 180 294 -6 6 -17 11 -23 11 -7 0 -33 16 -58 35 -26 19 -47 35 -49 35 -1 -1 -41 -20 -89 -44z m2 -106 c0 -34 -6 -37 -32 -13 -28 25 -22 35 25 42 4 0 7 -12 7 -29z"/>
<path d="M6360 5779 c-84 -45 -128 -76 -180 -125 -21 -19 -86 -55 -162 -87 -144 -62 -243 -124 -333 -208 -72 -68 -108 -129 -129 -223 -16 -66 -16 -70 2 -90 10 -12 28 -37 40 -56 11 -20 32 -46 46 -59 14 -13 30 -39 36 -57 8 -23 18 -34 31 -34 27 0 57 33 61 67 2 20 9 29 26 31 14 2 22 10 22 23 0 14 7 19 30 19 l30 0 -15 36 c-18 45 -18 44 0 44 8 0 22 -14 31 -31 9 -18 19 -27 23 -21 3 5 35 18 71 27 80 21 90 29 90 71 0 19 15 65 34 102 18 37 39 92 46 122 16 70 25 87 50 95 19 6 20 12 14 51 l-6 44 31 -6 c24 -5 41 0 71 20 40 26 53 56 26 56 -26 0 -46 30 -46 70 0 35 2 38 33 44 19 3 45 19 59 34 27 28 52 71 46 77 -2 2 -37 -14 -78 -36z"/>
<path d="M9405 5770 c-3 -5 -19 -10 -35 -10 -31 0 -36 -9 -42 -75 -3 -25 -12 -35 -56 -59 l-54 -28 6 -42 c7 -49 3 -55 -50 -89 -30 -19 -45 -37 -59 -74 -10 -26 -28 -61 -41 -77 l-22 -29 38 -61 c21 -34 41 -71 45 -83 7 -25 24 -30 43 -11 12 12 12 12 16 -34 1 -9 -11 -12 -34 -10 -27 2 -46 -4 -78 -27 -43 -32 -58 -63 -49 -107 3 -20 0 -28 -14 -31 -41 -11 -9 -43 43 -43 35 0 39 -3 64 -52 44 -88 109 -183 143 -209 17 -13 46 -36 64 -50 32 -26 32 -27 97 -13 36 7 79 14 96 14 16 0 35 5 41 11 8 8 52 -15 159 -84 137 -87 292 -173 299 -165 20 24 92 170 119 241 54 144 71 241 71 407 0 122 -4 160 -25 238 -25 97 -77 214 -96 220 -31 9 -17 -113 18 -152 4 -6 8 -20 8 -32 0 -12 10 -28 22 -36 20 -14 21 -17 8 -33 -12 -15 -12 -19 2 -29 14 -10 23 -58 19 -102 -1 -7 -17 -15 -36 -18 -50 -10 -95 -51 -95 -87 0 -18 -4 -28 -10 -24 -5 3 -10 21 -10 38 0 26 -4 33 -20 34 -18 2 -20 -4 -20 -53 0 -30 -4 -54 -10 -54 -5 0 -10 8 -10 18 0 21 -33 56 -43 45 -4 -3 -7 -19 -7 -35 0 -18 -6 -31 -17 -35 -10 -4 -21 -11 -25 -17 -5 -8 -11 -7 -20 2 -10 10 -10 16 0 33 7 11 10 24 7 29 -8 12 24 107 40 120 11 9 9 20 -12 61 -14 27 -23 52 -20 56 4 3 11 -6 16 -20 13 -33 39 -47 91 -47 23 0 50 -4 60 -10 21 -11 51 -3 48 14 -1 6 1 21 6 33 5 15 -1 37 -18 70 -43 86 -67 215 -42 230 7 4 16 24 19 44 5 34 1 41 -46 88 -99 100 -221 163 -379 195 -87 18 -204 21 -213 6z m-165 -569 c0 -13 -37 -57 -43 -51 -3 3 -8 17 -12 33 -7 25 -5 27 24 27 17 0 31 -4 31 -9z m-106 -226 c13 -9 43 -39 67 -67 36 -43 45 -62 49 -103 4 -41 9 -51 26 -53 12 -2 26 -13 32 -26 11 -26 85 -66 120 -66 25 0 62 -33 62 -55 0 -18 -9 -18 -69 -4 -58 13 -147 77 -183 130 -32 48 -34 59 -13 59 27 0 16 17 -45 65 -46 35 -58 50 -50 60 7 9 6 16 -5 25 -9 8 -21 22 -26 32 -12 23 3 24 35 3z m308 -204 c54 -35 62 -45 45 -60 -10 -8 -19 -6 -35 10 -12 11 -22 24 -22 29 0 6 -9 10 -20 10 -10 0 -24 9 -30 20 -16 29 7 26 62 -9z m467 -317 c36 -14 61 -47 48 -61 -3 -2 -8 5 -12 17 -5 17 -13 21 -37 18 -23 -2 -34 3 -45 20 -18 27 -8 28 46 6z"/>
<path d="M9110 5736 c-58 -18 -111 -34 -119 -37 -8 -3 4 -18 35 -42 42 -33 54 -37 106 -37 58 0 58 0 58 30 0 29 13 40 25 20 9 -14 65 17 65 36 0 24 -31 64 -49 63 -9 0 -63 -15 -121 -33z"/>
<path d="M3490 5604 c0 -83 23 -201 45 -230 13 -18 14 -17 15 12 0 18 -11 69 -23 115 -16 56 -22 100 -19 132 2 30 0 47 -7 47 -7 0 -11 -27 -11 -76z"/>
<path d="M3608 5589 c-15 -8 -17 -22 -11 -107 3 -53 9 -104 14 -112 5 -9 0 -27 -12 -46 l-19 -32 36 -32 c32 -27 84 -56 89 -48 4 8 35 188 35 209 0 14 -7 35 -16 48 -17 24 -17 24 -33 3 -20 -25 -61 -39 -61 -20 0 7 7 38 15 67 10 40 11 58 3 68 -12 15 -17 16 -40 2z"/>
<path d="M1702 5453 c-17 -31 -121 -106 -221 -159 -224 -121 -338 -200 -433 -302 -48 -53 -60 -74 -85 -152 -34 -105 -46 -96 107 -80 81 9 97 14 115 34 11 13 34 31 50 39 48 24 69 53 69 99 1 37 4 42 30 49 15 4 36 15 45 23 11 10 21 12 31 6 22 -14 28 -12 36 13 3 12 16 41 27 65 13 28 17 53 13 72 -4 23 0 36 14 50 11 11 24 20 30 20 5 0 29 24 52 54 24 29 65 78 91 109 27 31 47 62 45 69 -3 8 -9 5 -16 -9z"/>
<path d="M8987 4971 c-5 -22 0 -31 20 -31 7 0 13 11 13 25 0 30 -25 34 -33 6z"/>
<path d="M5584 4840 c3 -14 9 -37 12 -52 6 -27 28 -43 45 -32 16 10 9 28 -28 69 -31 35 -35 37 -29 15z"/>
<path d="M1040 4705 c-36 -7 -77 -11 -91 -8 -26 5 -27 4 -31 -59 -3 -34 -3 -65 -1 -68 2 -2 15 9 28 25 32 40 32 19 -1 -28 l-26 -39 16 -70 c9 -38 32 -103 52 -145 36 -76 36 -76 56 -56 24 25 37 80 38 160 0 34 7 83 16 109 14 41 43 167 44 187 0 9 -20 8 -100 -8z"/>
<path d="M8860 3159 c0 -6 -6 -9 -13 -6 -7 3 -58 0 -112 -5 -115 -11 -116 -12 -145 -108 -13 -44 -29 -73 -49 -91 -26 -23 -29 -31 -24 -62 3 -19 0 -51 -7 -71 -12 -36 -11 -38 34 -86 51 -54 58 -75 24 -65 -25 8 -26 8 -47 6 -10 -1 -12 -12 -7 -47 3 -25 1 -54 -4 -65 -7 -13 -7 -24 2 -39 11 -17 20 -19 78 -14 59 5 78 1 200 -40 77 -26 134 -51 132 -57 -3 -13 -4 -13 136 26 225 61 273 97 308 230 24 88 18 135 -27 223 -22 43 -53 92 -68 108 -38 41 -101 94 -101 86 -1 -4 -9 3 -20 16 -11 13 -23 21 -27 19 -5 -3 -33 3 -63 13 -30 11 -79 19 -108 20 -29 0 -62 5 -73 10 -14 8 -19 7 -19 -1z"/>
<path d="M8492 3104 c-55 -23 -91 -53 -127 -107 -41 -60 -41 -64 -15 -72 11 -3 20 -10 20 -15 0 -13 -43 -20 -57 -8 -10 8 -13 6 -13 -6 0 -9 -11 -43 -25 -76 -47 -111 -31 -170 68 -253 34 -29 50 -38 58 -30 7 7 11 55 10 127 -1 64 3 135 9 157 8 30 8 45 1 52 -19 19 -12 37 14 37 14 0 25 6 25 13 0 7 16 32 36 55 31 37 35 47 32 91 l-3 49 -33 -14z"/>
<path d="M7400 3071 c0 -7 -23 -11 -54 -11 -85 0 -222 -27 -338 -68 -94 -32 -108 -40 -108 -59 0 -18 -6 -23 -24 -23 -39 0 -50 -24 -47 -104 6 -147 8 -136 -39 -179 -24 -21 -57 -41 -73 -44 -18 -4 -26 -10 -23 -19 3 -7 0 -16 -6 -20 -14 -9 -38 24 -31 42 10 28 -45 14 -103 -26 -108 -73 -104 -67 -67 -98 17 -15 34 -36 37 -47 5 -17 -1 -23 -37 -35 l-42 -15 -5 -91 c-3 -51 -4 -99 -2 -108 2 -9 22 -26 45 -39 42 -22 42 -22 14 -25 -16 -2 -42 1 -58 7 -37 13 -59 5 -59 -21 0 -34 27 -72 94 -131 36 -32 66 -63 66 -69 0 -9 -26 -6 -63 8 -22 8 -29 -54 -8 -66 15 -7 221 -19 221 -12 0 2 -13 15 -30 29 -17 14 -30 35 -30 48 0 18 7 24 40 29 29 4 47 15 67 41 25 32 30 34 70 28 41 -5 43 -4 43 19 0 22 4 24 33 21 71 -9 77 -12 77 -43 0 -35 -21 -44 -70 -30 -40 11 -58 -5 -35 -30 13 -14 12 -18 -6 -34 -12 -9 -22 -16 -22 -14 -15 30 -28 45 -49 52 -20 7 -30 4 -47 -13 -11 -11 -28 -21 -36 -21 -27 0 -16 -23 35 -72 28 -26 50 -51 50 -54 0 -4 -28 -3 -62 2 -103 14 -216 9 -318 -16 -90 -21 -98 -25 -147 -76 -28 -29 -69 -62 -90 -73 -27 -13 -47 -35 -67 -70 -29 -54 -66 -95 -135 -151 -37 -30 -44 -41 -45 -74 -1 -36 2 -40 34 -51 26 -9 36 -18 38 -38 3 -23 7 -26 30 -21 68 12 113 -29 98 -89 -5 -20 -14 -28 -39 -32 -32 -6 -34 -8 -45 -78 -12 -66 -43 -137 -61 -137 -5 0 -6 43 -3 95 l5 95 -39 16 c-22 9 -86 22 -145 29 -105 12 -219 51 -219 74 0 7 24 11 58 11 60 1 222 56 230 79 9 27 -18 39 -77 34 -50 -5 -64 -2 -102 20 -60 34 -220 90 -231 79 -4 -4 -15 -41 -24 -82 -8 -41 -23 -86 -32 -102 l-17 -29 48 -40 c43 -37 47 -45 47 -84 0 -24 -5 -67 -12 -95 -11 -46 -14 -51 -37 -48 -19 2 -29 -4 -41 -25 -15 -28 -15 -29 40 -80 50 -47 61 -52 105 -55 28 -1 99 -11 158 -23 60 -11 111 -19 113 -16 3 2 0 15 -6 29 -10 20 -8 31 11 62 12 21 27 35 35 32 8 -3 15 6 19 24 4 17 11 33 17 36 8 5 9 -20 6 -82 l-5 -90 66 7 c36 4 74 3 83 -2 24 -13 25 -12 32 16 4 16 13 25 26 25 17 0 19 -5 14 -44 -6 -42 -5 -45 24 -60 17 -9 37 -25 45 -37 8 -11 42 -28 77 -39 34 -10 67 -26 74 -36 11 -15 15 -15 42 -2 16 9 60 21 98 28 53 10 77 20 105 45 30 27 47 34 101 40 92 10 136 -4 189 -61 41 -44 45 -46 80 -38 46 10 143 10 199 -1 31 -6 42 -4 42 5 0 39 40 87 125 151 50 38 95 69 99 69 17 0 -32 -67 -97 -133 -72 -72 -124 -154 -114 -181 4 -10 18 -11 66 -3 l61 10 -16 24 c-20 31 -11 42 15 19 22 -20 93 -39 101 -27 3 5 29 20 58 35 93 47 151 122 222 286 18 41 41 87 52 102 16 24 17 33 8 67 -6 23 -8 68 -4 104 l6 64 -42 34 c-23 19 -53 53 -67 77 -29 50 -42 58 -106 67 -61 9 -95 38 -107 90 -13 56 -2 144 22 179 18 25 19 34 9 61 -6 17 -11 41 -11 52 0 13 -17 30 -50 51 -34 21 -56 43 -66 67 -8 20 -22 39 -32 42 -9 4 -34 18 -54 32 -27 19 -38 33 -38 52 0 37 -6 39 -182 65 -27 3 -48 8 -48 10 0 1 5 15 10 30 10 24 14 26 48 20 20 -4 70 -11 110 -15 60 -7 78 -13 102 -36 37 -36 75 -28 140 30 58 52 109 65 244 65 100 0 156 -7 156 -21 0 -4 -21 -17 -47 -29 -39 -17 -52 -19 -69 -9 -30 16 -140 7 -184 -14 -19 -10 -48 -28 -64 -41 -28 -23 -28 -24 -11 -50 16 -24 16 -28 1 -51 -29 -44 8 -104 81 -136 32 -14 43 -24 43 -40 0 -13 5 -37 12 -55 10 -30 9 -35 -11 -51 -26 -21 -40 -78 -41 -165 0 -76 13 -88 94 -88 55 0 67 -3 90 -26 14 -15 26 -31 26 -35 0 -10 100 -69 118 -69 6 0 12 9 12 19 0 28 11 52 21 45 14 -8 10 -72 -10 -154 -18 -72 -17 -119 1 -70 4 12 37 59 71 104 162 209 308 533 362 805 7 30 5 33 -11 27 -28 -11 -171 -8 -230 5 -47 11 -54 10 -81 -10 -28 -21 -36 -22 -136 -15 -59 4 -107 10 -107 13 0 9 87 51 105 51 9 0 24 -5 35 -12 17 -11 24 -8 49 16 31 29 61 30 61 1 0 -23 18 -18 36 10 19 28 36 32 54 10 15 -18 40 -19 64 -2 14 10 18 32 20 127 3 109 2 118 -25 171 -33 66 -51 133 -78 294 -20 119 -54 219 -85 244 -9 7 -16 20 -16 28 0 8 -4 12 -9 9 -5 -3 -28 5 -52 18 -70 39 -154 56 -304 63 l-140 6 3 -44 c2 -29 -2 -51 -12 -64 -14 -18 -15 -15 -9 46 4 44 2 69 -6 73 -6 4 -11 2 -11 -3z m143 -182 c6 -22 -5 -32 -26 -23 -17 6 -30 32 -22 44 9 14 43 -1 48 -21z m-784 -393 c18 -19 28 -23 37 -15 22 18 38 0 18 -22 -24 -27 -51 -24 -85 10 -33 33 -41 78 -11 62 9 -5 28 -21 41 -35z m1021 9 c0 -8 -7 -15 -15 -15 -16 0 -20 12 -8 23 11 12 23 8 23 -8z m-968 -166 c28 -33 21 -43 -14 -21 -18 11 -51 24 -73 27 -47 9 -57 14 -51 24 3 4 31 4 63 0 41 -6 63 -14 75 -30z m95 -35 c11 -3 23 -14 26 -25 3 -11 14 -19 25 -19 20 0 36 -25 26 -41 -12 -20 -43 -7 -78 31 -48 54 -48 67 1 54z m933 -35 c6 -11 31 -29 55 -39 42 -18 62 -36 52 -46 -3 -3 -28 5 -56 17 -50 21 -81 50 -81 76 0 20 18 15 30 -8z m-1140 -83 c10 -32 25 -65 34 -75 11 -12 13 -25 7 -46 l-8 -30 -13 27 c-7 15 -25 31 -41 37 -26 9 -27 12 -19 42 5 18 7 50 3 72 -9 61 16 43 37 -27z m171 -4 c48 -31 89 -72 71 -72 -25 0 -101 40 -116 61 -33 47 -18 51 45 11z m870 -244 c1 -7 3 -20 4 -28 1 -8 3 -25 4 -36 0 -12 18 -46 38 -75 27 -39 37 -65 37 -94 1 -39 3 -41 66 -75 80 -43 101 -58 123 -90 28 -40 20 -46 -15 -12 -18 17 -69 49 -114 71 -84 41 -94 54 -94 122 0 10 -13 39 -29 66 -21 34 -31 65 -33 106 -3 31 -1 57 4 57 4 0 9 -6 9 -12z m271 -450 c8 -7 18 -23 21 -35 4 -18 1 -23 -14 -23 -15 0 -19 -7 -19 -35 0 -19 -2 -35 -5 -35 -8 0 -64 64 -65 73 0 5 14 6 31 2 l31 -7 -18 27 c-15 23 -15 28 -3 36 19 12 22 11 41 -3z m-987 -58 c-8 -16 -15 -35 -15 -42 0 -22 -50 -122 -73 -147 -12 -12 -48 -36 -80 -52 -85 -43 -97 -59 -97 -124 0 -30 -4 -55 -10 -55 -6 0 -10 28 -10 63 l0 62 -41 23 c-49 28 -45 38 9 21 37 -11 44 -10 94 20 66 37 176 157 184 201 4 17 16 37 28 45 28 20 29 19 11 -15z m-595 -70 c11 -7 12 -14 5 -26 -15 -24 -29 -19 -33 11 -4 27 4 31 28 15z m856 -305 c4 -14 3 -29 -1 -33 -8 -8 -35 26 -35 45 0 24 29 14 36 -12z m-768 -155 c1 -37 -1 -39 -19 -30 -20 11 -23 27 -13 54 12 32 32 17 32 -24z m986 -57 c4 -9 1 -20 -6 -25 -21 -12 -31 -9 -24 8 3 9 6 20 6 25 0 15 17 10 24 -8z m-184 -41 c0 -36 -23 -54 -65 -50 -35 3 -40 6 -43 30 -3 25 -2 26 36 21 24 -3 42 -1 46 6 11 17 26 13 26 -7z m-660 -58 c0 -9 -5 -14 -12 -12 -18 6 -21 28 -4 28 9 0 16 -7 16 -16z"/>
<path d="M6680 2816 c-88 -66 -287 -263 -276 -273 3 -4 30 10 58 30 75 51 119 67 184 67 54 0 58 2 99 45 l42 46 -5 74 c-2 41 -7 75 -11 75 -3 0 -44 -29 -91 -64z"/>
<path d="M2341 2683 c-1 -12 4 -25 9 -28 12 -7 12 2 0 30 -8 19 -9 19 -9 -2z"/>
<path d="M3060 2527 c-3 -3 -69 -7 -146 -10 -128 -4 -143 -6 -163 -26 -26 -26 -41 -27 -41 -1 0 11 -6 20 -12 20 -36 0 -202 -22 -265 -35 -40 -8 -75 -15 -78 -15 -3 0 -1 -9 5 -20 6 -12 9 -33 7 -48 -4 -26 -4 -26 -12 -5 -4 12 -16 25 -26 28 -14 5 -19 17 -20 43 -2 31 -3 32 -6 9 -3 -21 -19 -37 -64 -65 -32 -20 -59 -39 -59 -42 0 -3 22 -23 49 -43 27 -21 55 -44 61 -52 24 -28 -16 -16 -70 21 -43 29 -58 35 -85 30 -18 -4 -40 -15 -50 -26 -10 -11 -27 -20 -37 -20 -11 0 -17 -4 -14 -9 8 -12 -31 -44 -43 -36 -6 3 -11 1 -11 -6 0 -7 -59 -72 -130 -145 l-130 -134 39 -57 c49 -73 81 -137 81 -162 0 -10 -22 -62 -50 -115 l-50 -95 30 -67 c17 -36 30 -72 30 -79 0 -7 14 -16 30 -20 40 -9 84 -47 125 -108 18 -27 70 -78 115 -114 l82 -65 50 49 c27 26 62 68 78 93 16 25 43 54 60 65 31 20 80 104 80 137 0 13 8 18 26 18 15 0 41 13 60 30 19 16 53 34 76 41 59 15 65 22 73 80 6 42 14 57 54 96 48 46 120 98 127 90 2 -2 -21 -35 -52 -73 -60 -73 -74 -100 -74 -143 0 -35 17 -51 55 -51 49 0 122 -26 163 -57 51 -39 63 -42 97 -26 54 27 95 63 137 121 53 75 106 130 140 148 18 9 59 14 120 14 108 0 156 18 248 91 66 52 156 100 175 93 14 -6 47 48 59 99 11 45 -22 34 -79 -28 -29 -30 -55 -55 -58 -55 -11 0 14 54 36 79 12 12 47 36 78 52 l57 28 -79 80 c-50 50 -90 82 -109 86 -23 5 -30 3 -30 -9 0 -16 -18 -31 -27 -22 -3 3 0 19 6 35 11 25 10 33 -4 55 -10 14 -22 26 -29 27 -6 0 -45 24 -86 54 -41 30 -96 68 -122 85 l-48 30 0 -28 c0 -41 28 -128 47 -148 11 -11 27 -14 50 -11 28 5 33 3 33 -13 0 -11 13 -34 29 -52 l29 -33 -5 64 -6 63 22 -13 c20 -13 22 -21 19 -84 l-3 -70 33 -10 c35 -12 59 -31 50 -41 -3 -3 -26 0 -50 8 -31 9 -66 35 -129 95 -47 46 -92 83 -100 83 -8 0 -47 -12 -88 -27 -64 -23 -79 -25 -121 -17 l-48 10 -6 -39 c-5 -26 -17 -50 -39 -70 -42 -39 -67 -77 -67 -104 0 -13 -15 -34 -37 -52 l-37 -31 22 -29 c12 -17 22 -35 22 -41 0 -6 -16 -35 -36 -65 -29 -43 -43 -56 -71 -61 -19 -4 -36 -4 -39 -1 -3 3 13 33 35 66 23 33 41 67 41 75 0 8 -17 28 -37 43 -21 15 -59 49 -85 76 -42 41 -53 47 -90 47 -28 0 -56 9 -87 29 -25 16 -67 32 -93 35 -45 7 -48 9 -58 48 -6 22 -23 51 -37 63 -14 13 -35 31 -46 41 -15 13 -17 19 -8 22 21 7 64 -31 96 -86 28 -48 33 -51 70 -52 27 0 54 -10 84 -30 24 -16 60 -32 80 -35 71 -12 82 -16 99 -37 44 -55 62 -68 94 -68 31 0 36 5 60 53 14 28 46 75 70 103 25 29 51 66 58 84 9 22 26 38 54 51 40 18 41 18 44 -2 4 -22 6 -22 105 13 31 11 57 27 57 34 0 7 -9 36 -20 64 -11 28 -20 64 -20 79 0 27 -3 29 -62 40 -78 13 -221 24 -228 18z m-116 -151 c8 -14 8 -20 -2 -23 -6 -3 -10 -9 -6 -14 7 -12 -3 -11 -26 1 -17 9 -18 14 -8 35 13 28 26 28 42 1z m602 -47 c18 -21 18 -21 -16 -17 -24 2 -36 9 -38 21 -5 24 30 22 54 -4z m68 -349 c4 -24 11 -30 31 -30 16 0 25 -6 25 -15 0 -8 -8 -15 -19 -15 -29 0 -71 39 -71 66 0 35 26 30 34 -6z m-1576 -112 l34 -51 -36 7 c-43 8 -45 -1 -11 -42 32 -38 31 -46 -2 -37 -37 9 -49 20 -62 57 -9 27 -8 31 10 35 16 4 19 11 15 29 -6 23 1 54 13 53 3 0 21 -23 39 -51z m1312 16 c0 -17 -22 -14 -28 4 -2 7 3 12 12 12 9 0 16 -7 16 -16z m-772 -62 c13 -20 13 -22 -6 -22 -18 0 -32 18 -32 42 0 15 22 4 38 -20z m723 -45 c5 -19 3 -27 -6 -27 -19 0 -38 28 -31 46 9 22 29 12 37 -19z m-1371 -4 c0 -26 -16 -47 -29 -39 -12 8 -15 39 -4 49 13 13 33 7 33 -10z m988 -230 c12 -35 5 -41 -27 -24 -13 7 -16 19 -13 46 4 30 7 34 17 23 7 -7 17 -28 23 -45z m-933 -8 c0 -10 -6 -20 -12 -22 -8 -3 -13 5 -13 22 0 17 5 25 13 23 6 -3 12 -13 12 -23z"/>
<path d="M6330 2469 c0 -10 -311 -448 -386 -543 -25 -32 -54 -61 -64 -63 -10 -3 -16 -11 -14 -18 7 -17 -90 -90 -136 -103 -19 -6 -27 -11 -17 -11 26 -1 21 -43 -8 -71 -14 -13 -25 -34 -25 -48 0 -15 -5 -22 -12 -19 -7 2 -12 13 -10 23 1 10 5 36 9 57 3 20 2 37 -2 37 -12 0 -45 -41 -45 -55 0 -7 -7 -16 -16 -19 -9 -3 -14 -12 -11 -20 11 -29 -7 -25 -25 5 -17 28 -22 30 -56 24 -20 -4 -40 -9 -44 -11 -7 -5 -12 -163 -5 -164 98 -14 165 -33 199 -57 77 -53 84 -55 142 -43 84 17 266 165 266 216 0 19 -5 24 -27 25 -25 0 -26 1 -8 9 11 5 33 11 49 15 17 4 57 35 100 78 49 51 84 77 113 86 57 19 73 39 82 105 l8 56 -49 35 c-60 43 -61 63 -12 151 34 61 36 69 33 141 l-4 77 35 9 c51 13 56 21 34 66 -17 35 -23 39 -56 39 -21 1 -38 -4 -38 -9z m-660 -994 c0 -8 -7 -15 -15 -15 -8 0 -15 7 -15 15 0 8 7 15 15 15 8 0 15 -7 15 -15z"/>
<path d="M8465 2470 c-9 -14 -12 -11 65 -51 53 -27 80 -33 148 -37 l82 -5 0 32 c0 25 -4 31 -20 31 -12 0 -34 7 -51 15 -21 11 -52 15 -107 13 -42 -1 -84 1 -93 5 -10 5 -20 4 -24 -3z"/>
<path d="M8780 2403 c0 -18 5 -20 48 -15 73 7 72 21 -3 29 -40 5 -45 3 -45 -14z"/>
<path d="M8815 2300 c24 -47 18 -82 -35 -192 -50 -102 -51 -105 -40 -153 6 -28 8 -76 4 -112 l-6 -61 48 -9 c27 -4 105 -8 174 -8 113 0 133 3 203 29 108 40 172 98 194 177 16 58 17 59 52 60 l36 1 -31 7 c-46 11 -51 17 -68 69 -11 33 -33 64 -69 98 -103 99 -173 124 -352 124 l-126 0 16 -30z m333 -42 c-3 -7 -11 -13 -18 -13 -7 0 -15 6 -17 13 -3 7 4 12 17 12 13 0 20 -5 18 -12z"/>
<path d="M8703 2290 c-122 -56 -178 -121 -192 -225 l-8 -55 28 0 c50 0 43 -20 -8 -21 -26 -1 -38 -4 -26 -6 15 -3 29 -19 42 -48 14 -31 37 -57 81 -89 34 -25 69 -46 77 -46 9 0 13 -6 9 -15 -3 -8 0 -15 6 -15 12 0 4 114 -12 156 -20 51 -11 90 46 200 44 86 54 115 50 139 -11 53 -24 57 -93 25z"/>
<path d="M8207 2243 c14 -36 14 -64 -2 -139 -7 -29 -5 -32 24 -36 18 -3 39 1 48 7 14 10 15 18 4 61 -11 46 -68 144 -83 144 -4 0 0 -17 9 -37z"/>
<path d="M3975 1949 c-37 -81 -32 -104 17 -78 11 6 22 8 25 5 9 -9 -74 -42 -139 -56 -49 -11 -60 -18 -87 -56 -26 -37 -39 -46 -99 -64 -63 -19 -70 -24 -76 -51 -3 -16 -3 -44 1 -61 5 -27 3 -31 -8 -20 -19 17 -29 15 -29 -7 0 -20 38 -42 106 -60 51 -13 60 -24 79 -88 18 -60 49 -103 75 -103 11 0 40 10 64 22 54 26 61 23 150 -53 32 -27 64 -49 72 -49 7 0 16 12 20 28 10 47 13 52 30 52 25 0 9 -49 -27 -82 -41 -38 -72 -36 -98 6 -34 55 -73 65 -191 51 -79 -9 -90 -1 -123 101 -22 68 -23 69 -59 72 -21 2 -38 7 -38 12 0 4 -21 15 -47 24 -38 13 -49 14 -58 4 -6 -7 -67 -75 -135 -151 -68 -76 -140 -150 -160 -163 -28 -19 -36 -30 -33 -44 6 -24 -25 -40 -38 -19 -17 27 -9 49 24 62 17 8 55 40 82 72 28 33 93 107 145 166 105 118 152 189 126 189 -9 0 -16 9 -16 20 0 19 -7 20 -103 20 -121 0 -154 -13 -205 -81 -18 -24 -44 -59 -58 -77 -14 -18 -56 -53 -94 -78 l-68 -45 14 -52 c8 -29 16 -79 19 -112 4 -57 6 -61 45 -88 53 -37 103 -43 174 -23 42 12 56 21 56 35 0 35 23 42 49 15 27 -28 23 -41 -8 -25 -18 10 -20 8 -23 -21 -3 -32 -5 -33 -48 -34 -25 -1 -58 -7 -73 -13 -16 -6 -50 -11 -77 -11 l-48 0 -47 -94 c-26 -52 -44 -100 -40 -106 4 -7 2 -16 -5 -20 -23 -14 345 -22 575 -11 127 6 345 15 485 21 140 5 291 12 335 15 45 3 86 1 95 -4 11 -8 27 3 67 45 49 51 53 59 53 103 0 26 4 51 9 56 5 6 11 21 13 35 2 17 10 26 25 28 22 3 22 2 8 -31 -10 -25 -13 -54 -8 -101 6 -66 5 -68 -27 -101 -19 -19 -32 -36 -29 -38 2 -2 130 -12 284 -21 154 -10 286 -19 293 -22 22 -7 89 34 119 71 15 20 43 45 62 57 81 51 82 211 2 253 -38 19 -39 38 -6 77 18 21 25 41 25 72 0 41 -1 43 -87 105 -106 77 -103 78 -212 -64 -70 -90 -78 -105 -83 -155 -6 -57 -25 -110 -40 -110 -4 0 -8 37 -8 83 0 68 4 90 25 129 14 26 25 49 25 51 0 8 -64 -9 -96 -26 -16 -8 -47 -41 -67 -72 -54 -81 -86 -98 -170 -91 -68 5 -69 5 -100 -31 -49 -55 -61 -81 -48 -109 14 -32 -2 -31 -23 1 -16 25 -16 28 15 83 18 31 39 65 47 74 7 9 11 22 7 28 -4 7 -58 36 -120 65 -62 29 -115 58 -119 64 -4 6 -22 11 -39 11 l-32 1 26 22 c24 22 25 23 6 38 -21 16 -23 38 -12 120 7 56 7 57 -32 100 -37 40 -39 47 -31 77 7 26 6 37 -6 45 -8 7 -56 63 -105 126 l-91 113 -25 -53z m175 -461 c0 -7 -5 -20 -10 -28 -7 -11 -4 -19 13 -32 12 -9 18 -20 14 -24 -4 -4 -13 -2 -19 4 -7 7 -20 12 -30 12 -20 0 -23 16 -8 54 10 26 40 36 40 14z m-854 -123 c-4 -13 -10 -14 -26 -5 -25 13 -26 27 -2 33 23 5 36 -8 28 -28z m-179 -129 c16 -47 12 -54 -22 -32 -18 12 -25 25 -25 47 0 44 29 34 47 -15z m453 14 c0 -22 -8 -25 -30 -10 -13 9 -13 11 0 20 22 15 30 12 30 -10z m796 -2 c-4 -16 1 -28 14 -38 24 -19 41 -105 19 -98 -8 3 -16 13 -17 24 -7 36 -34 84 -49 84 -31 0 -142 -55 -145 -72 -2 -13 -7 -15 -18 -8 -22 14 21 54 103 95 83 42 102 44 93 13z m747 -128 c4 -15 0 -20 -14 -20 -19 0 -41 37 -32 53 7 12 40 -11 46 -33z m-863 -90 c0 -22 -2 -40 -4 -40 -2 0 -13 15 -24 34 -15 25 -17 36 -9 40 30 12 37 5 37 -34z m-792 -8 c15 -23 15 -23 -14 -16 -36 8 -48 19 -39 34 10 17 36 8 53 -18z m-77 -52 c11 0 19 -4 19 -10 0 -16 -56 -12 -70 5 -7 8 -9 23 -5 32 6 16 8 16 22 -4 9 -13 24 -23 34 -23z m1469 -11 c0 -52 -24 -48 -28 4 -2 28 1 37 12 37 12 0 16 -11 16 -41z m392 -17 c14 -14 -22 -52 -48 -52 -31 0 -56 46 -33 61 15 10 68 4 81 -9z"/>
<path d="M4237 1718 c-6 -18 10 -48 50 -89 33 -35 34 -36 23 -85 -6 -27 -13 -57 -16 -66 -4 -12 7 -25 37 -43 23 -15 60 -43 83 -64 22 -21 62 -49 88 -64 25 -15 60 -43 77 -63 27 -34 33 -36 70 -31 71 9 147 51 175 96 31 48 64 67 140 79 43 7 61 15 74 33 9 13 41 50 71 82 77 81 69 90 -69 88 -142 -3 -362 15 -493 40 -107 20 -272 72 -283 90 -8 13 -22 11 -27 -3z"/>
<path d="M8765 1693 c-52 -11 -78 -28 -91 -60 -8 -18 -19 -33 -25 -33 -11 0 -4 -114 8 -147 3 -7 0 -13 -6 -13 -7 0 -13 6 -15 13 -2 6 -11 38 -22 71 -18 57 -18 59 1 73 11 7 21 18 21 23 1 6 2 17 3 25 0 8 13 21 29 30 27 16 26 16 -29 11 -69 -5 -130 -35 -161 -78 -20 -29 -23 -44 -23 -128 0 -159 38 -202 209 -235 307 -59 575 65 526 243 -28 106 -123 170 -290 197 -98 15 -102 16 -135 8z m302 -208 c18 -22 37 -35 52 -35 17 0 22 -4 17 -16 -3 -9 -6 -24 -6 -35 0 -14 -4 -18 -14 -12 -18 11 -96 110 -96 123 0 20 20 10 47 -25z"/>
<path d="M1709 1633 l4 -48 13 39 c11 32 12 41 2 48 -22 13 -23 10 -19 -39z"/>
<path d="M5345 1615 c-5 -2 -31 -6 -56 -10 -43 -5 -47 -9 -59 -45 -7 -21 -10 -45 -7 -53 5 -14 137 -107 152 -107 4 0 5 10 2 21 -3 12 0 31 8 43 7 11 16 51 20 89 l7 67 -29 -1 c-15 0 -32 -2 -38 -4z"/>
<path d="M2659 1436 c11 -14 11 -16 -2 -16 -9 0 -28 5 -43 11 -16 5 -38 8 -51 4 -37 -9 -92 -64 -120 -119 -14 -28 -55 -82 -91 -121 -69 -75 -147 -174 -141 -178 17 -13 234 -92 319 -116 123 -35 298 -71 346 -71 28 0 39 7 63 40 29 40 106 189 100 193 -43 23 -44 25 -56 113 -17 119 -36 167 -84 208 -43 37 -89 52 -189 62 -59 6 -63 5 -51 -10z m161 -211 c13 -14 38 -28 57 -31 38 -7 46 -15 37 -38 -9 -22 -37 -20 -60 5 -10 12 -31 27 -46 35 -16 9 -28 23 -28 34 0 27 12 25 40 -5z"/>
<path d="M7709 1236 c40 -42 47 -44 56 -15 9 27 -1 36 -50 44 l-40 7 34 -36z"/>
<path d="M8310 1182 c0 -16 7 -35 15 -42 15 -12 21 -40 9 -40 -4 0 -28 8 -55 17 -34 12 -49 23 -49 35 0 29 -15 21 -38 -21 -29 -52 -28 -109 3 -176 33 -69 96 -131 165 -164 48 -23 68 -26 155 -26 83 0 108 4 150 23 214 98 186 324 -50 398 -30 10 -102 18 -177 21 l-128 5 0 -30z m215 -182 c14 -15 16 -23 7 -32 -17 -17 -42 -1 -42 27 0 30 11 32 35 5z"/>
<path d="M1590 970 c0 -11 4 -20 8 -20 4 0 8 9 8 20 0 11 -4 20 -8 20 -4 0 -8 -9 -8 -20z"/>
<path d="M5313 817 c-24 -11 -43 -24 -43 -28 0 -4 29 -9 65 -11 36 -1 65 -1 65 2 0 3 -10 17 -23 32 l-22 26 -42 -21z"/>
<path d="M8004 810 c-28 -4 -75 -15 -104 -25 l-53 -18 26 -14 c34 -17 57 -61 64 -124 6 -53 10 -56 52 -34 16 8 59 17 96 21 54 6 69 11 72 26 7 22 29 24 41 1 9 -15 13 -14 42 7 l32 23 54 -26 c79 -39 88 -36 58 18 -62 111 -217 170 -380 145z m83 -52 c27 -26 30 -40 6 -31 -19 6 -43 32 -43 45 0 14 13 9 37 -14z"/>
<path d="M7781 685 c-16 -57 -13 -84 11 -135 22 -47 25 -53 27 -71 0 -6 13 -9 29 -7 24 3 28 9 41 61 l13 57 -33 38 c-19 20 -44 50 -55 67 l-22 29 -11 -39z"/>
<path d="M6615 584 c-52 -31 -103 -54 -120 -55 -16 0 -39 -4 -50 -8 l-20 -8 20 -6 c96 -30 415 -54 578 -42 93 6 107 9 107 25 0 13 -15 22 -58 34 -72 20 -90 20 -135 1 -56 -23 -70 -19 -105 30 -27 38 -95 87 -119 84 -4 0 -48 -25 -98 -55z m73 -66 c5 -24 -10 -23 -39 2 l-24 20 30 -2 c19 -2 31 -9 33 -20z"/>
<path d="M8213 555 c-29 -13 -89 -29 -134 -35 -122 -17 -117 -12 -97 -100 14 -63 30 -73 119 -74 58 0 77 5 145 39 70 34 154 102 154 125 0 4 -17 10 -38 14 -22 3 -48 16 -62 31 -13 14 -26 25 -29 25 -3 0 -30 -11 -58 -25z"/>
<path d="M1596 281 c-5 -7 -3 -18 3 -24 14 -14 20 -6 11 17 -5 15 -9 16 -14 7z"/>
<path d="M9130 25 c7 -9 15 -13 17 -11 7 7 -7 26 -19 26 -6 0 -6 -6 2 -15z"/>
</g>
</svg>