<?xml version="1.0" standalone="no"?>
<!DOCTYPE svg PUBLIC "-//W3C//DTD SVG 20010904//EN"
 "http://www.w3.org/TR/2001/REC-SVG-20010904/DTD/svg10.dtd">
<svg version="1.0" xmlns="http://www.w3.org/2000/svg"
 width="1275.000000pt" height="1280.000000pt" viewBox="0 0 1275.000000 1280.000000"
 preserveAspectRatio="xMidYMid meet">
<g transform="translate(0.000000,1280.000000) scale(0.100000,-0.100000)"
fill="#000000" stroke="none">
<path d="M3925 12684 c-104 -63 -196 -118 -204 -123 -11 -7 1 -25 50 -82 157
-180 353 -533 584 -1054 104 -234 275 -653 275 -674 0 -6 4 -11 10 -11 25 0
420 206 420 219 0 8 -38 104 -84 215 -247 592 -562 1222 -737 1476 -53 76
-114 152 -121 149 -2 0 -88 -52 -193 -115z"/>
<path d="M8266 12648 c-83 -445 -321 -1225 -491 -1610 l-43 -98 216 -110 c118
-60 219 -110 222 -110 12 0 113 282 212 590 109 340 358 1233 347 1245 -7 6
-430 185 -438 185 -4 0 -15 -42 -25 -92z"/>
<path d="M247 10067 l-246 -171 92 -49 c51 -27 132 -78 182 -113 207 -147 320
-217 485 -306 251 -135 669 -362 780 -424 53 -29 154 -93 225 -143 71 -50 132
-91 135 -91 8 0 355 349 350 352 -3 2 -31 17 -64 33 -32 17 -73 47 -90 69 -78
96 -98 114 -188 160 -51 27 -185 101 -298 164 -113 64 -302 166 -422 228 -228
118 -314 172 -456 283 -48 37 -121 93 -163 124 l-76 56 -246 -172z"/>
<path d="M5875 9493 c-496 -32 -1025 -200 -1503 -477 -648 -375 -1048 -786
-1176 -1208 -58 -189 -58 -696 0 -1088 78 -529 254 -1097 666 -2140 183 -463
208 -587 177 -865 -26 -234 -68 -412 -121 -517 -20 -42 -13 -46 32 -23 50 26
34 9 -42 -44 -43 -31 -66 -52 -57 -55 8 -3 49 -12 92 -22 42 -10 77 -20 77
-23 -1 -3 -118 -64 -260 -136 -143 -71 -260 -132 -260 -134 -1 -21 79 -140
130 -194 101 -107 301 -239 427 -281 l63 -21 -240 -174 c-132 -96 -240 -176
-240 -177 0 -1 30 -12 68 -25 37 -12 148 -57 247 -99 99 -42 187 -79 195 -82
8 -3 -75 -50 -187 -107 -112 -55 -203 -107 -203 -114 0 -25 75 -138 138 -207
109 -121 340 -294 479 -361 90 -43 225 -82 343 -98 100 -15 509 -31 601 -25
l74 5 -210 -108 -210 -108 -7 -150 c-3 -83 -13 -208 -22 -280 -9 -72 -16 -136
-16 -142 0 -7 132 53 294 134 290 145 294 147 300 181 3 19 15 139 28 266 l22
233 116 28 c98 24 148 44 345 143 127 63 258 134 291 158 128 91 195 194 221
342 8 46 12 86 10 89 -3 2 -135 -63 -294 -145 -278 -145 -289 -151 -303 -188
-8 -22 -18 -44 -22 -50 -12 -18 -158 -23 -438 -14 -443 14 -571 54 -859 271
-73 55 -184 159 -177 166 2 3 87 -7 187 -22 206 -29 521 -58 834 -76 187 -10
220 -10 300 5 358 67 665 278 769 528 l16 37 -93 -43 c-50 -24 -139 -67 -197
-96 l-105 -52 -295 6 c-378 7 -577 26 -950 92 -112 20 -170 36 -255 72 -156
65 -276 124 -240 118 255 -46 508 -69 755 -69 218 0 336 10 610 54 233 37 210
26 501 249 143 110 259 200 257 200 -2 0 -46 -11 -99 -24 -524 -133 -1120
-124 -1763 25 -79 19 -157 44 -200 66 -72 36 -214 127 -251 160 -33 30 -105
115 -105 124 0 5 21 0 48 -11 26 -10 124 -50 217 -89 315 -129 497 -168 975
-206 102 -8 205 -19 230 -25 69 -14 254 -12 358 5 l92 15 228 181 c161 129
252 194 314 225 64 32 89 50 92 67 21 103 29 240 36 607 8 458 15 530 66 672
48 131 177 327 405 613 161 202 326 367 685 687 338 301 578 564 838 921 101
139 158 240 220 394 110 268 182 618 205 997 15 245 -49 486 -183 690 -135
206 -260 298 -584 427 -503 201 -1059 307 -1772 339 -208 9 -617 11 -735 3z
m585 -382 c587 -49 1054 -162 1499 -363 328 -148 483 -332 579 -687 59 -216
21 -662 -88 -1034 -70 -243 -168 -437 -327 -649 -261 -348 -497 -600 -858
-914 -88 -76 -240 -217 -337 -313 -144 -140 -208 -213 -336 -380 -300 -389
-378 -529 -428 -761 -13 -59 -17 -154 -20 -455 -5 -421 -11 -522 -34 -517 -8
2 -141 14 -295 27 -481 41 -544 56 -999 237 -138 55 -261 104 -273 108 -21 9
-21 11 -8 67 73 314 118 649 104 775 -19 163 -49 261 -174 563 -46 110 -117
282 -159 383 -173 416 -319 861 -446 1357 -89 347 -123 616 -124 990 -1 448
28 573 192 825 107 166 292 360 473 498 19 15 627 167 849 212 99 21 206 35
295 40 176 10 749 4 915 -9z"/>
<path d="M12634 9380 c-12 -5 -223 -58 -470 -120 -781 -193 -1065 -285 -1366
-442 l-117 -61 86 -171 c47 -94 87 -173 88 -174 2 -2 130 39 285 92 377 129
677 219 1319 396 156 44 285 81 287 83 2 2 -12 91 -31 198 -19 107 -35 197
-35 202 0 9 -19 8 -46 -3z"/>
</g>
</svg>
